<?xml version="1.0" encoding="utf-8"?>
<!-- Generator: Adobe Illustrator 16.0.0, SVG Export Plug-In . SVG Version: 6.00 Build 0)  -->
<!DOCTYPE svg PUBLIC "-//W3C//DTD SVG 1.1//EN" "http://www.w3.org/Graphics/SVG/1.1/DTD/svg11.dtd">
<svg version="1.1" id="Layer_1" xmlns="http://www.w3.org/2000/svg" xmlns:xlink="http://www.w3.org/1999/xlink" x="0px" y="0px"
	 width="1440px" height="1680px" viewBox="0 0 1440 1680" style="enable-background:new 0 0 1440 1680;" xml:space="preserve">
<style type="text/css">
<![CDATA[
	.st0{clip-path:url(#SVGID_38_);fill-rule:evenodd;clip-rule:evenodd;}
	.st1{clip-path:url(#SVGID_11_);fill-rule:evenodd;clip-rule:evenodd;fill:#8C6239;}
	.st2{display:none;fill:#FFCC00;}
	.st3{clip-path:url(#SVGID_40_);fill-rule:evenodd;clip-rule:evenodd;}
	.st4{clip-path:url(#SVGID_11_);fill-rule:evenodd;clip-rule:evenodd;fill:#F2F2F2;}
	.st5{display:none;fill:#660099;}
	.st6{clip-path:url(#SVGID_6_);fill-rule:evenodd;clip-rule:evenodd;fill:#9900CC;}
	.st7{clip-path:url(#SVGID_11_);fill-rule:evenodd;clip-rule:evenodd;fill:#F7931E;}
	.st8{clip-path:url(#SVGID_36_);fill-rule:evenodd;clip-rule:evenodd;fill:#E13E4F;}
	.st9{clip-path:url(#SVGID_36_);fill-rule:evenodd;clip-rule:evenodd;fill:#E6E6E6;}
	.st10{clip-path:url(#SVGID_36_);fill-rule:evenodd;clip-rule:evenodd;fill:#E6E7E8;}
	.st11{fill:none;stroke:#FF0033;stroke-width:30;stroke-linecap:round;stroke-miterlimit:10;}
	.st12{clip-path:url(#SVGID_6_);fill-rule:evenodd;clip-rule:evenodd;fill:#CC3366;}
	.st13{clip-path:url(#SVGID_11_);fill-rule:evenodd;clip-rule:evenodd;fill:#FBB03B;}
	.st14{fill:#ED1C24;}
	.st15{clip-path:url(#SVGID_11_);fill-rule:evenodd;clip-rule:evenodd;fill:#FF3399;}
	.st16{clip-path:url(#SVGID_11_);fill-rule:evenodd;clip-rule:evenodd;fill:#FF3700;}
	.st17{clip-path:url(#SVGID_11_);fill-rule:evenodd;clip-rule:evenodd;fill:#FF66AD;}
	.st18{clip-path:url(#SVGID_11_);fill-rule:evenodd;clip-rule:evenodd;fill:#FF9470;}
	.st19{clip-path:url(#SVGID_11_);fill-rule:evenodd;clip-rule:evenodd;fill:#FFAE00;}
	.st20{clip-path:url(#SVGID_11_);fill-rule:evenodd;clip-rule:evenodd;fill:#FFC7FF;}
	.st21{clip-path:url(#SVGID_11_);fill-rule:evenodd;clip-rule:evenodd;fill:#FFCC00;}
	.st22{clip-path:url(#SVGID_11_);fill-rule:evenodd;clip-rule:evenodd;fill:#FFCC33;}
	.st23{clip-path:url(#SVGID_11_);fill-rule:evenodd;clip-rule:evenodd;fill:#FFCC99;}
	.st24{clip-path:url(#SVGID_11_);fill-rule:evenodd;clip-rule:evenodd;fill:#FFD9D9;}
	.st25{clip-path:url(#SVGID_11_);fill-rule:evenodd;clip-rule:evenodd;fill:#FFFFFF;}
	.st26{clip-path:url(#SVGID_36_);fill-rule:evenodd;clip-rule:evenodd;fill:#EB707D;}
	.st27{display:none;fill:#D3135A;}
	.st28{clip-path:url(#SVGID_11_);fill:#D31900;}
	.st29{clip-path:url(#SVGID_22_);fill:url(#SVGID_23_);}
	.st30{clip-path:url(#SVGID_11_);fill-rule:evenodd;clip-rule:evenodd;fill:#CC3300;}
	.st31{clip-path:url(#SVGID_11_);fill-rule:evenodd;clip-rule:evenodd;fill:#CC66FF;}
	.st32{clip-path:url(#SVGID_25_);fill:url(#SVGID_26_);}
	.st33{clip-path:url(#SVGID_11_);fill-rule:evenodd;clip-rule:evenodd;fill:#CCCCCC;}
	.st34{fill:#8C6239;}
	.st35{clip-path:url(#SVGID_34_);fill-rule:evenodd;clip-rule:evenodd;fill:#FFFFFF;}
	.st36{clip-path:url(#SVGID_15_);fill:#FF8133;}
	.st37{clip-path:url(#SVGID_17_);fill:none;}
	.st38{clip-path:url(#SVGID_11_);fill-rule:evenodd;clip-rule:evenodd;fill:#336699;}
	.st39{fill:#F04C33;}
	.st40{clip-path:url(#SVGID_11_);fill-rule:evenodd;clip-rule:evenodd;fill:#33CCFF;}
	.st41{fill:none;stroke:#000000;stroke-width:50;stroke-linecap:round;stroke-miterlimit:10;}
	.st42{fill:#F15A24;}
	.st43{clip-path:url(#SVGID_15_);fill-rule:evenodd;clip-rule:evenodd;fill:#820082;}
	.st44{fill:#F6E6DB;}
	.st45{fill:#F7931E;}
	.st46{clip-path:url(#SVGID_2_);}
	.st47{clip-path:url(#SVGID_4_);}
	.st48{fill:none;stroke:#FF7BAC;stroke-width:50;stroke-linecap:round;stroke-miterlimit:10;}
	.st49{fill:#93278F;}
	.st50{clip-path:url(#SVGID_40_);fill-rule:evenodd;clip-rule:evenodd;fill:#EC1E24;}
	.st51{fill:#FBB03B;}
	.st52{fill:#996633;}
	.st53{fill:#99CC66;}
	.st54{fill:#FF0066;}
	.st55{fill:#FF6600;}
	.st56{fill:#FF6633;}
	.st57{fill:#FF7BAC;}
	.st58{fill:#FF9900;}
	.st59{fill:#FF9966;}
	.st60{display:none;clip-path:url(#SVGID_15_);fill-rule:evenodd;clip-rule:evenodd;fill:#D4145A;}
	.st61{fill:#FFCC00;}
	.st62{fill:#FFCC66;}
	.st63{fill:#FFDB00;}
	.st64{fill:#FFFFFF;}
	.st65{clip-path:url(#SVGID_36_);fill-rule:evenodd;clip-rule:evenodd;fill:#999999;}
	.st66{fill:none;}
	.st67{clip-path:url(#SVGID_11_);fill-rule:evenodd;clip-rule:evenodd;fill:#A60008;}
	.st68{clip-path:url(#SVGID_11_);fill:#E6E6E6;}
	.st69{clip-path:url(#SVGID_36_);fill-rule:evenodd;clip-rule:evenodd;fill:#FFCC00;}
	.st70{fill:#CC6633;}
	.st71{clip-path:url(#SVGID_6_);fill-rule:evenodd;clip-rule:evenodd;fill:#E06C00;}
	.st72{fill:#CC9933;}
	.st73{clip-path:url(#SVGID_36_);fill-rule:evenodd;clip-rule:evenodd;fill:#666666;}
	.st74{clip-path:url(#SVGID_11_);fill:#B3B3B3;}
	.st75{clip-path:url(#SVGID_15_);fill-rule:evenodd;clip-rule:evenodd;fill:#F9AA8F;}
	.st76{clip-path:url(#SVGID_36_);fill-rule:evenodd;clip-rule:evenodd;fill:#333333;}
	.st77{clip-path:url(#SVGID_11_);fill-rule:evenodd;clip-rule:evenodd;fill:#E06C00;}
	.st78{fill:#00ABFF;}
	.st79{clip-path:url(#SVGID_15_);fill-rule:evenodd;clip-rule:evenodd;fill:#C90007;}
	.st80{clip-path:url(#SVGID_15_);fill-rule:evenodd;clip-rule:evenodd;fill:#FF0009;}
	.st81{clip-path:url(#SVGID_15_);fill-rule:evenodd;clip-rule:evenodd;fill:#FF5900;}
	.st82{clip-path:url(#SVGID_15_);fill-rule:evenodd;clip-rule:evenodd;fill:#FF99FF;}
	.st83{clip-path:url(#SVGID_11_);fill-rule:evenodd;clip-rule:evenodd;fill:#E6E6E6;}
	.st84{clip-path:url(#SVGID_15_);fill-rule:evenodd;clip-rule:evenodd;fill:#FFCB05;}
	.st85{clip-path:url(#SVGID_15_);fill-rule:evenodd;clip-rule:evenodd;fill:#FFFFFF;}
	.st86{clip-path:url(#SVGID_6_);fill-rule:evenodd;clip-rule:evenodd;fill:#ED1C24;}
	.st87{clip-path:url(#SVGID_19_);fill:url(#SVGID_20_);}
	.st88{fill:#D76367;}
	.st89{clip-path:url(#SVGID_11_);fill-rule:evenodd;clip-rule:evenodd;}
	.st90{clip-path:url(#SVGID_15_);fill-rule:evenodd;clip-rule:evenodd;}
	.st91{clip-path:url(#SVGID_11_);fill-rule:evenodd;clip-rule:evenodd;fill:#81AFDE;}
	.st92{clip-path:url(#SVGID_11_);fill:#F15A24;}
	.st93{clip-path:url(#SVGID_40_);fill-rule:evenodd;clip-rule:evenodd;fill:#FFFFFF;}
	.st94{clip-path:url(#SVGID_15_);fill-rule:evenodd;clip-rule:evenodd;fill:#CC0066;}
	.st95{clip-path:url(#SVGID_11_);}
	.st96{clip-path:url(#SVGID_13_);}
	.st97{clip-path:url(#SVGID_17_);}
	.st98{clip-path:url(#SVGID_28_);}
	.st99{clip-path:url(#SVGID_30_);}
	.st100{clip-path:url(#SVGID_32_);}
	.st101{clip-path:url(#SVGID_34_);}
	.st102{clip-path:url(#SVGID_38_);fill-rule:evenodd;clip-rule:evenodd;fill:#FFFFFF;}
	.st103{clip-path:url(#SVGID_8_);fill:url(#SVGID_9_);}
	.st104{fill:#A67C52;}
	.st105{clip-path:url(#SVGID_11_);fill:#F7931E;}
	.st106{clip-path:url(#SVGID_11_);fill-rule:evenodd;clip-rule:evenodd;fill:#ED1C24;}
	.st107{fill:#404041;}
	.st108{clip-path:url(#SVGID_15_);fill-rule:evenodd;clip-rule:evenodd;fill:#6D6E70;}
	.st109{clip-path:url(#SVGID_15_);fill-rule:evenodd;clip-rule:evenodd;fill:#0099FF;}
	.st110{clip-path:url(#SVGID_34_);fill-rule:evenodd;clip-rule:evenodd;}
	.st111{clip-path:url(#SVGID_36_);fill-rule:evenodd;clip-rule:evenodd;}
	.st112{clip-path:url(#SVGID_38_);fill-rule:evenodd;clip-rule:evenodd;fill:#3399FF;}
]]>
</style>
<rect class="st5" width="1440" height="1680"/>
<g>
	<defs>
		<rect id="SVGID_16_" width="1440" height="1680"/>
	</defs>
	<clipPath id="SVGID_2_">
		<use xlink:href="#SVGID_16_"  style="overflow:visible;"/>
	</clipPath>
	<g class="st46">
		<g>
			<path class="st58" d="M1333.9,136.5c-104.2,0-188.6,84.4-188.6,188.6c0,104.2,84.4,188.6,188.6,188.6
				c44.7,0,85.8-15.6,118.2-41.5V178C1419.7,152.1,1378.6,136.5,1333.9,136.5z"/>
		</g>
		<g>
			<g>
				<g>
					<g>
						<g>
							<path class="st56" d="M551.7,352c0,18.7,11.9,30.8,27.9,35.8l158.9,49.9c6.6,2.1,13.6,3.2,20.9,3.2c27.3,0,50.7-16,60.7-38.6
								l0,0c6.3-14.2,21-24.2,38-24.2h3.3l0,0h452.2v-63.3H825.1h-70.9H590.6C569.1,314.7,551.7,333.3,551.7,352"/>
						</g>
						<g>
							<path class="st61" d="M543.2,333.8c0,18.7,11.9,30.8,27.9,35.8l158.9,49.9c6.6,2.1,13.6,3.2,20.9,3.2
								c27.3,0,50.7-16,60.7-38.6l0,0c6.3-14.2,21-24.2,38-24.2h3.3l0,0H1305v-63.3H816.7h-70.9H582.2
								C560.7,296.5,543.2,315,543.2,333.8"/>
						</g>
						<g>
							<path class="st55" d="M1333.9,241.8c46,0,83.3,37.3,83.3,83.3c0,46-37.3,83.3-83.3,83.3c-46,0-83.3-37.3-83.3-83.3
								C1250.6,279.1,1287.9,241.8,1333.9,241.8"/>
						</g>
						<g>
							<path class="st62" d="M1333.9,269.1c30.9,0,55.9,25,55.9,55.9c0,30.9-25,55.9-55.9,55.9c-30.9,0-55.9-25-55.9-55.9
								C1278,294.2,1303,269.1,1333.9,269.1"/>
						</g>
						<g>
							<path class="st63" d="M1315,329.8L1315,329.8c0,0.7-0.6,1.3-1.3,1.3H742.5c-0.7,0-1.3-0.6-1.3-1.3c0-0.7,0.6-1.3,1.3-1.3h571
								C1314.3,328.5,1315,329.1,1315,329.8"/>
						</g>
						<g>
							<path class="st41" d="M1249.6,945.9c70.1,70.1,70.1,183.9,0,254.1"/>
						</g>
						<g>
							<path class="st57" d="M1008.7,943.3H903.6c-50.4,0-91.4-41-91.4-91.4c0-14,11.3-25.2,25.2-25.2c14,0,25.2,11.3,25.2,25.2
								c0,22.5,18.3,40.8,40.8,40.8h105.1c14,0,25.2,11.4,25.2,25.2C1033.9,932,1022.7,943.3,1008.7,943.3"/>
						</g>
						<g>
							<path class="st48" d="M1088,460.3c48.4,0,88.1,39.6,88.1,88.1v10c0,48.4-42.3,88.1-88.1,88.1H712.3"/>
						</g>
						<g>
							<path class="st104" d="M830.3,630.1h224.6c106.4,0,193.5,87.1,193.5,193.5v109.2h-162.6V825.2c0-69-56.4-125.6-125.6-125.6
								H830.3V630.1z"/>
						</g>
						<g>
							<path class="st51" d="M739.3,719.2c0,44.3,35.9,80.2,80.2,80.2c44.3,0,80.2-35.9,80.2-80.2c0-44.3-35.9-80.2-80.2-80.2
								C775.1,638.9,739.3,674.9,739.3,719.2"/>
						</g>
						<g>
							<path class="st57" d="M925.8,608.7c0,31.5,25.5,57.2,57.2,57.2c31.5,0,57.2-25.5,57.2-57.2c0-31.5-25.5-57.2-57.2-57.2
								C951.5,551.6,925.8,577.2,925.8,608.7"/>
						</g>
						<g>
							<path class="st49" d="M950.6,595.1c0,17.9,14.5,32.4,32.4,32.4s32.4-14.5,32.4-32.4c0-17.9-14.5-32.4-32.4-32.4
								S950.6,577.2,950.6,595.1"/>
						</g>
						<g>
							<path class="st51" d="M423.5,629c0,77.3,62.7,140,140.1,140c77.3,0,140-62.7,140-140c0-77.3-62.7-140-140-140
								C486.2,488.9,423.5,551.7,423.5,629"/>
						</g>
						<g>
							<path class="st51" d="M629.2,555.4c29.6,0,53.6-24,53.6-53.6c0-29.6-24-53.6-53.6-53.6c-23.3,0-43.2,14.9-50.6,35.7
								c-8.2-11-21.3-18.2-36.2-18.2c-22.1,0-40.4,16-44.2,37c-6-12.3-18.5-20.8-33.1-20.8c-20.3,0-36.8,16.5-36.8,36.8
								c0,20.4,16.5,36.8,36.8,36.8h77.3H629.2z"/>
						</g>
					</g>
					<g>
						<g>
							<g>
								<defs>
									<path id="SVGID_18_" d="M623.5,518.6c-56.4,0-102.7,46.2-102.7,102.7c0,56.4,46.2,102.7,102.7,102.7h80.6h5.9h92.4
										c39,0,70.9-31.9,70.9-70.9s-31.9-70.9-70.9-70.9H710v-63.4H623.5z"/>
								</defs>
								<clipPath id="SVGID_4_">
									<use xlink:href="#SVGID_18_"  style="overflow:visible;"/>
								</clipPath>
								
									<linearGradient id="SVGID_6_" gradientUnits="userSpaceOnUse" x1="-11274.9697" y1="-486.9805" x2="-11262.3359" y2="-486.9805" gradientTransform="matrix(-23.5556 -20.1481 -20.1481 23.5556 -274569.8125 -214963.2813)">
									<stop  offset="0" style="stop-color:#FF7BAC"/>
									<stop  offset="0.1456" style="stop-color:#FF80AF"/>
									<stop  offset="0.3303" style="stop-color:#FF90B9"/>
									<stop  offset="0.5361" style="stop-color:#FFAACA"/>
									<stop  offset="0.7573" style="stop-color:#FFCEE0"/>
									<stop  offset="0.9884" style="stop-color:#FFFCFD"/>
									<stop  offset="1" style="stop-color:#FFFFFF"/>
								</linearGradient>
								<polygon style="clip-path:url(#SVGID_4_);fill:url(#SVGID_6_);" points="724.4,898.1 419.3,637.3 669.7,344.5 974.8,605.4 
																	"/>
							</g>
						</g>
					</g>
					<g>
						<g>
							<path class="st39" d="M798.6,724.6c41.2,0,74.7,33.4,74.7,74.7c0,41.2-33.4,74.7-74.7,74.7c-32.5,0-60.1-20.8-70.4-49.8
								c-11.3,15.4-29.7,25.4-50.4,25.4c-30.8,0-56.3-22.2-61.6-51.5c-8.3,17.1-25.8,28.9-46.1,28.9c-28.3,0-51.3-22.9-51.3-51.3
								c0-28.3,22.9-51.3,51.3-51.3h107.7L798.6,724.6L798.6,724.6z"/>
						</g>
						<g>
							<path class="st44" d="M627.9,754.1L627.9,754.1c0,16.2,13.3,29.5,29.4,29.5c16.2,0,29.4-13.3,29.4-29.5v-12.5v-5.1
								c0-2.6,2.1-4.8,4.8-4.8c2.6,0,4.8,2.1,4.8,4.8v5.1c0,9.3,7.7,17,17,17s17-7.7,17-17s-7.7-17-17-17h-56
								C641.2,724.6,627.9,737.9,627.9,754.1"/>
						</g>
						<g>
							<path class="st64" d="M601.5,551.3c20.4,0,41.2,11.3,41.2,48.8c0,37.5-28.3,61.5-41.2,61.5V551.3z"/>
						</g>
						<g>
							<path class="st78" d="M605.7,591.7c0-9,7.3-16.4,16.4-16.4c9,0,16.4,7.3,16.4,16.4c0,9-7.3,16.4-16.4,16.4
								C613.1,608.1,605.7,600.8,605.7,591.7"/>
						</g>
						<g>
							<path d="M612.5,591.7c0-5.3,4.3-9.6,9.6-9.6c5.3,0,9.6,4.3,9.6,9.6c0,5.3-4.3,9.6-9.6,9.6
								C616.8,601.3,612.5,597.1,612.5,591.7"/>
						</g>
						<g>
							<path class="st14" d="M972,571.7v-24.1c0-5.7,4.7-10.3,10.3-10.3c5.7,0,10.3,4.7,10.3,10.3v24.1c0,5.7-4.7,10.3-10.3,10.3
								C976.7,582.1,972,577.4,972,571.7"/>
						</g>
						<g>
							<path class="st57" d="M977,671.6c-31.5,0-57.2,25.5-57.2,57.2c0,31.5,25.5,57.2,57.2,57.2c31.5,0,57.2-25.5,57.2-57.2
								C1034.1,697.3,1008.6,671.6,977,671.6"/>
						</g>
						<g>
							<path class="st49" d="M990.7,696.5c-17.9,0-32.4,14.5-32.4,32.4c0,17.9,14.5,32.4,32.4,32.4c17.9,0,32.4-14.5,32.4-32.4
								C1023,711,1008.5,696.5,990.7,696.5"/>
						</g>
						<g>
							<path class="st14" d="M1014,717.9h24.1c5.7,0,10.3,4.7,10.3,10.3c0,5.7-4.7,10.3-10.3,10.3H1014c-5.7,0-10.3-4.7-10.3-10.3
								C1003.6,722.5,1008.3,717.9,1014,717.9"/>
						</g>
						<g>
							<path class="st104" d="M1313,910.2c0,77.6-62.9,140.5-140.5,140.5c-77.6,0-140.5-62.9-140.5-140.5s62.9-140.5,140.5-140.5
								S1313,832.7,1313,910.2"/>
						</g>
						<g>
							<path class="st41" d="M1106.1,995c0,99.2-80.5,179.7-179.7,179.7"/>
						</g>
						<g>
							<path class="st57" d="M1054.6,856.1c-3.1,0-5.7,2.5-5.7,5.7s2.5,5.7,5.7,5.7h44.6c4.9,0,8.9,3.9,8.9,8.9s-4,8.9-8.9,8.9
								h-44.6c-3.1,0-5.7,2.5-5.7,5.7s2.5,5.7,5.7,5.7h44.6c4.9,0,8.9,4,8.9,8.9c0,4.9-4,8.9-8.9,8.9h-44.6c-3.1,0-5.7,2.5-5.7,5.7
								c0,3.1,2.5,5.7,5.7,5.7h44.6c4.9,0,8.9,4,8.9,8.9c0,5-4,8.9-8.9,8.9h-44.7h-50.1v-69.7c0-19.5,15.9-35.4,35.4-35.4h14.6h44.7
								c4.9,0,8.9,4,8.9,8.9c0,4.9-4,8.9-8.9,8.9h-44.5V856.1z"/>
						</g>
						<g>
							<path class="st55" d="M440.6,1083.6v-50.2c0-62.3,51-113.3,113.3-113.3h95.9c62.3,0,113.3,51,113.3,113.3v50.2H440.6z"/>
						</g>
						<g>
							<path class="st34" d="M763.1,1075.9v113.3c0,62.3-51,113.3-113.3,113.3h-95.9c-62.3,0-113.3-51-113.3-113.3v-113.3H763.1z"/>
						</g>
						<g>
							<path class="st42" d="M763.1,1111.8v45.9c0,62.3-51,113.3-113.3,113.3h-95.9c-62.3,0-113.3-51-113.3-113.3v-45.9H763.1z"/>
						</g>
						<g>
							<path class="st45" d="M763.1,1075.9v50.2c0,62.3-51,113.3-113.3,113.3h-95.9c-62.3,0-113.3-51-113.3-113.3v-50.2H763.1z"/>
						</g>
						<g>
							<path class="st61" d="M-8.6,954.5h358.9c36.4,0,66.2,29.8,66.2,66.2v129.7c0,36.4-29.8,66.2-66.2,66.2H-8.6V954.5L-8.6,954.5
								z"/>
						</g>
						<g>
							<path class="st72" d="M354.7-16.6v397.4c0,36.4-29.8,66.2-66.2,66.2H158.8c-36.4,0-66.2-29.8-66.2-66.2V-16.6H354.7z"/>
						</g>
						<g>
							<path class="st48" d="M295.8,1160v176c0,36.4,29.8,66.2,66.2,66.2h84"/>
						</g>
						<g>
							<rect x="561.2" y="920.9" class="st64" width="72.8" height="97.2"/>
						</g>
						<g>
							<path class="st78" d="M561.2,920.9c0,20.1,16.3,36.4,36.4,36.4c20.1,0,36.4-16.3,36.4-36.4c0-20.1-16.3-36.4-36.4-36.4
								C577.4,884.6,561.2,900.9,561.2,920.9"/>
						</g>
						<g>
							<path d="M575.6,920.9c0,12.2,9.8,22,22,22c12.2,0,22-9.8,22-22s-9.8-22-22-22C585.4,898.9,575.6,908.8,575.6,920.9"/>
						</g>
					</g>
					<g>
						<g>
							<g>
								<defs>
									<path id="SVGID_21_" d="M535.4,1017.6H411.6c-32.4,0-59,26.6-59,59c0,32.4,26.6,59,59,59h248.5c32.4,0,59-26.6,59-59
										c0-32.4-26.6-59-59-59L535.5,957v60.6H535.4z"/>
								</defs>
								<clipPath id="SVGID_8_">
									<use xlink:href="#SVGID_21_"  style="overflow:visible;"/>
								</clipPath>
								
									<linearGradient id="SVGID_9_" gradientUnits="userSpaceOnUse" x1="-11276.5918" y1="-126.4863" x2="-11263.957" y2="-126.4863" gradientTransform="matrix(-20.3333 16.5556 16.5556 20.3333 -226585.7813 190247.3438)">
									<stop  offset="0" style="stop-color:#FF7BAC"/>
									<stop  offset="0.268" style="stop-color:#FFA2C4"/>
									<stop  offset="0.7661" style="stop-color:#FFE5EE"/>
									<stop  offset="1" style="stop-color:#FFFFFF"/>
								</linearGradient>
								<polygon class="st103" points="806.3,1064.3 498.7,1314.8 265.2,1028.2 573,777.6 								"/>
							</g>
						</g>
					</g>
					<g>
						<g>
							<path class="st54" d="M486.4,1014.1v16.7c0,1.4,1.2,2.6,2.6,2.6c1.4,0,2.6-1.2,2.6-2.6v-16.4c0-6.5,5.3-11.7,11.8-11.7
								c6.4,0,11.7,5.3,11.7,11.7v19.6c0,14.3-11.8,26-26,26c-14.3,0-26-11.8-26-26v-19.8c0-6.4,5.3-11.7,11.7-11.7
								C481.1,1002.3,486.4,1007.6,486.4,1014.1"/>
						</g>
						<g>
							<path class="st64" d="M691,1080.9c0,17-8,31.9-19.9,39.8c-11.9-8-19.9-22.8-19.9-39.8c0-17,8-31.9,19.9-39.8
								C683.1,1049,691,1063.9,691,1080.9"/>
						</g>
						<g>
							<path class="st78" d="M688.2,1080.9c0,9.4-7.6,17-17,17c-9.3,0-17-7.6-17-17c0-9.4,7.6-17,17-17
								C680.6,1064,688.2,1071.6,688.2,1080.9"/>
						</g>
						<g>
							<path d="M681.2,1080.9c0,5.5-4.5,9.9-9.9,9.9c-5.5,0-9.9-4.5-9.9-9.9c0-5.5,4.5-9.9,9.9-9.9
								C676.7,1071,681.2,1075.5,681.2,1080.9"/>
						</g>
						<g>
							<path class="st14" d="M294.2,1178.5c-22,0-39.7-17.8-39.7-39.7s17.8-39.7,39.7-39.7c21.9,0,39.7,17.8,39.7,39.7
								S316.1,1178.5,294.2,1178.5"/>
						</g>
						<g>
							<path class="st57" d="M516.1,1461.2h-31.4c-19.4,0-35.2-15.9-35.2-35.3l0.2-69.4c3.3-18,19.3-31.8,38.2-31.8h33.5
								c5.4,0,9.7,4.4,9.7,9.7c0,5.4-4.4,9.7-9.7,9.7h-18.6c-3.4,0-6.2,2.7-6.2,6.2c0,3.4,2.7,6.2,6.2,6.2h13.5l90.7,0.2
								c4.9,0,8.8,4,8.8,8.8c0,4.9-4,8.8-8.8,8.8l-90.6-0.2c-3.1,0-5.7,2.5-5.7,5.7c0,3.1,2.5,5.7,5.7,5.7l56.1,0.1
								c4.9,0,8.8,4,8.8,8.8c0,4.9-4,8.8-8.8,8.8l-56.1-0.1c-3.1,0-5.7,2.5-5.7,5.7c0,3.1,2.5,5.7,5.7,5.7l56.1,0.1
								c4.9,0,8.8,4,8.8,8.8c0,4.9-4.1,8.8-8.8,8.8l-56.1-0.1c-3.1,0-5.7,2.5-5.7,5.7c0,3.1,2.5,5.7,5.7,5.7l56.1,0.1
								c4.9,0,8.8,4,8.8,8.8c0,4.9-4,8.8-8.8,8.8L516.1,1461.2z"/>
						</g>
						<g>
							<path class="st64" d="M528.7,1334.5L528.7,1334.5c0,3.4-2.8,6.2-6.2,6.2h-8.2c-3.4,0-6.2-2.8-6.2-6.2l0,0
								c0-3.4,2.8-6.2,6.2-6.2h8.3C525.9,1328.3,528.7,1331,528.7,1334.5"/>
						</g>
						<g>
							<path class="st64" d="M612.1,1365.6L612.1,1365.6c0,2.7-2.3,5.1-5.1,5.1h-6.7c-2.7,0-5.1-2.3-5.1-5.1c0-2.7,2.3-5.1,5.1-5.1
								h6.7C609.7,1360.6,612.1,1362.9,612.1,1365.6"/>
						</g>
						<g>
							<path class="st14" d="M493.2,1030.6c0,2.3-1.9,4.3-4.3,4.3c-2.3,0-4.3-1.9-4.3-4.3V926.7c0-10.2-8.3-18.5-18.5-18.5h-8.5
								c-8.6,0-15.7-7.1-15.7-15.7c0-8.6,7.1-15.7,15.7-15.7h5c16.8,0,30.6,13.8,30.6,30.6V1030.6z"/>
						</g>
						<g>
							<polygon class="st88" points="800.4,1131.2 941.6,1131.2 941.6,1209.7 800.4,1346.9 800.4,1233.6 828.4,1201.5 800.4,1201.5 
															"/>
						</g>
						<g>
							<path class="st51" d="M879.3,1247.9c0,9.3-7.6,16.8-16.8,16.8c-9.3,0-16.9-7.6-16.9-16.8s7.6-16.8,16.9-16.8
								C871.8,1231,879.3,1238.6,879.3,1247.9"/>
						</g>
						<g>
							<path class="st107" d="M871.5,1247.9c0,5-4.1,9-9,9c-5,0-9-4.1-9-9c0-5,4.1-9,9-9C867.4,1238.9,871.5,1243,871.5,1247.9"/>
						</g>
						<g>
							<path class="st51" d="M910.9,1216.3c0,9.3-7.5,16.8-16.8,16.8c-9.3,0-16.9-7.6-16.9-16.8c0-9.3,7.6-16.8,16.9-16.8
								C903.3,1199.5,910.9,1207,910.9,1216.3"/>
						</g>
						<g>
							<path class="st107" d="M903.1,1216.3c0,5-4.1,9-9,9c-5,0-9-4.1-9-9c0-5,4.1-9,9-9C899.1,1207.3,903.1,1211.4,903.1,1216.3"/>
						</g>
						<g>
							<polygon class="st88" points="1132.8,1253.8 1232.7,1154 1288.2,1209.5 1285.4,1406.4 1205.3,1326.3 1202.5,1283.8 
								1182.7,1303.7 							"/>
						</g>
						<g>
							<path class="st51" d="M1271.3,1280.6c6.6,6.6,6.6,17.2,0,23.8c-6.6,6.6-17.2,6.6-23.8,0c-6.6-6.6-6.6-17.2,0-23.8
								C1253.9,1274,1264.7,1274,1271.3,1280.6"/>
						</g>
						<g>
							<path class="st107" d="M1265.7,1286.2c3.5,3.5,3.5,9.2,0,12.8c-3.5,3.5-9.3,3.5-12.8,0c-3.5-3.5-3.5-9.2,0-12.8
								C1256.5,1282.6,1262.2,1282.6,1265.7,1286.2"/>
						</g>
						<g>
							<path class="st51" d="M1271.3,1236c6.6,6.6,6.6,17.2,0,23.8c-6.6,6.6-17.2,6.6-23.8,0c-6.6-6.6-6.6-17.2,0-23.8
								C1253.9,1229.4,1264.7,1229.4,1271.3,1236"/>
						</g>
						<g>
							<path class="st107" d="M1265.7,1241.5c3.5,3.5,3.5,9.2,0,12.8c-3.5,3.5-9.3,3.5-12.8,0c-3.5-3.5-3.5-9.2,0-12.8
								C1256.5,1237.9,1262.2,1237.9,1265.7,1241.5"/>
						</g>
						<g>
							<path class="st57" d="M1118.2,418.7v31.4c0,19.4-15.9,35.2-35.3,35.2l-69.4-0.2c-18-3.3-31.8-19.3-31.8-38.2v-33.5
								c0-5.4,4.4-9.7,9.7-9.7c5.4,0,9.7,4.4,9.7,9.7V432c0,3.4,2.7,6.2,6.2,6.2c3.4,0,6.2-2.7,6.2-6.2v-13.5l0.2-97.1
								c0-4.9,4-8.8,8.8-8.8s8.8,3.9,8.8,8.8l-0.2,97c0,3.1,2.5,5.7,5.7,5.7c3.1,0,5.7-2.5,5.7-5.7l0.1-98.3c0-4.9,4-8.8,8.8-8.8
								c4.9,0,8.8,4.1,8.8,8.8l-0.1,98.3c0,3.1,2.5,5.7,5.7,5.7c3.1,0,5.7-2.5,5.7-5.7l0.1-98.3c0-4.9,4-8.8,8.8-8.8
								c4.9,0,8.8,4,8.8,8.8l-0.1,98.3c0,3.1,2.5,5.7,5.7,5.7c3.1,0,5.7-2.5,5.7-5.7l0.1-98.3c0-4.9,4-8.8,8.8-8.8
								c4.9,0,8.8,4,8.8,8.8V418.7z"/>
						</g>
						<g>
							<rect x="630.9" y="264.8" class="st51" width="4.9" height="30.6"/>
						</g>
						<g>
							<path class="st45" d="M618.4,257.9c0-8.3,6.7-15,15-15c8.3,0,15,6.7,15,15c0,8.3-6.7,15-15,15
								C625,272.9,618.4,266.2,618.4,257.9"/>
						</g>
						<g>
							<rect x="670.5" y="264.8" class="st51" width="4.9" height="30.6"/>
						</g>
						<g>
							<path class="st45" d="M658,257.9c0-8.3,6.7-15,15-15c8.3,0,15,6.7,15,15c0,8.3-6.7,15-15,15C664.8,272.9,658,266.2,658,257.9
								"/>
						</g>
						<g>
							<rect x="710.3" y="264.8" class="st51" width="4.9" height="30.6"/>
						</g>
						<g>
							<path class="st45" d="M697.7,257.9c0-8.3,6.7-15,15-15c8.3,0,15,6.7,15,15c0,8.3-6.7,15-15,15
								C704.4,272.9,697.7,266.2,697.7,257.9"/>
						</g>
					</g>
					<g>
						<g>
							<g>
								<defs>
									<path id="SVGID_24_" d="M157,454.5v220.9c0,40.6,33.2,74,74,74c40.6,0,74-33.2,74-74l58.5-112.5h-58.5V454.5
										c0-40.6-33.2-74-74-74C190.2,380.6,157,413.8,157,454.5"/>
								</defs>
								<clipPath id="SVGID_11_">
									<use xlink:href="#SVGID_24_"  style="overflow:visible;"/>
								</clipPath>
								
									<linearGradient id="SVGID_13_" gradientUnits="userSpaceOnUse" x1="-11525.916" y1="-309.1885" x2="-11513.2842" y2="-309.1885" gradientTransform="matrix(-16.3333 0 0 16.3333 -187892.5781 5615.043)">
									<stop  offset="0" style="stop-color:#FF7BAC"/>
									<stop  offset="0.268" style="stop-color:#FFA2C4"/>
									<stop  offset="0.7661" style="stop-color:#FFE5EE"/>
									<stop  offset="1" style="stop-color:#FFFFFF"/>
								</linearGradient>
								<rect x="157" y="380.6" style="clip-path:url(#SVGID_11_);fill:url(#SVGID_13_);" width="206.3" height="368.8"/>
							</g>
						</g>
					</g>
					<g>
						<g>
							<path class="st53" d="M207.4,654c0-21.7,17.5-39.2,39.2-39.2c21.7,0,39.2,17.5,39.2,39.2c0,21.7-17.5,39.2-39.2,39.2
								C225.1,693.2,207.4,675.7,207.4,654"/>
						</g>
						<g>
							<path d="M224.8,654c0-12.1,9.8-21.9,21.9-21.9c12.1,0,21.9,9.8,21.9,21.9c0,12.1-9.8,21.9-21.9,21.9
								C234.6,675.9,224.8,666.1,224.8,654"/>
						</g>
						<g>
							<path class="st52" d="M293.2,712.2h-100c-20.1,0-36.3-16.4-36.3-36.4V480H51.8c-7.9,8.1-15.6,16.5-15.6,33.5
								c0,35,32.6,33.4,32.6,68.4c0,35.1-27,31.7-27,66.8c0,35.1,27,35.1,27,70.1c0,55,44.6,99.6,99.6,99.6h124.8
								c29.2,0,53.1-23.9,53.1-53.1C346.3,736.1,322.4,712.2,293.2,712.2"/>
						</g>
						<g>
							<path class="st54" d="M297.4,532.7l-37.2-33.3l50.4-0.8c0.3,0,0.5,0,0.8,0c2.5,0,5.1,0.4,7.6,1.3
								c10.3,3.9,15.5,15.6,11.6,25.9c-4,10.3-15.6,15.5-25.9,11.6c-2.5-1-4.8-2.4-6.6-4.2C297.8,533,297.6,532.9,297.4,532.7"/>
						</g>
						<g>
							<path class="st54" d="M296.8,465.3l-36.6,34l50.5-0.1c0.3,0,0.5,0,0.8,0c2.5,0,5.1-0.5,7.6-1.5c10.3-4.2,15.3-15.9,11-26.1
								c-4.2-10.3-15.9-15.3-26.1-11c-2.5,1-4.7,2.5-6.5,4.3C297.2,464.9,297,465.1,296.8,465.3"/>
						</g>
						<g>
							<path class="st11" d="M785.7,582.4c0,37.2-15.7,49.4-50.5,49.4"/>
						</g>
						<g>
							<path class="st59" d="M24.9,457.6c0,45.2,36.7,81.9,81.9,81.9c45.2,0,81.9-36.7,81.9-81.9c0-45.2-36.7-81.9-81.9-81.9
								C61.6,375.8,24.9,412.4,24.9,457.6"/>
						</g>
						<g>
							<path class="st70" d="M202.3,292.6c0,14.5,11.8,26.2,26.2,26.2c14.5,0,26.1-11.8,26.1-26.2c0-14.5-11.8-26.2-26.1-26.2
								C213.9,266.4,202.3,278.1,202.3,292.6"/>
						</g>
						<g>
							<path class="st70" d="M202.3,201.3c0,14.5,11.8,26.2,26.2,26.2c14.5,0,26.1-11.8,26.1-26.2c0-14.5-11.8-26.2-26.1-26.2
								C213.9,175.2,202.3,186.9,202.3,201.3"/>
						</g>
						<g>
							<path class="st70" d="M202.3,110.1c0,14.5,11.8,26.2,26.2,26.2c14.5,0,26.1-11.8,26.1-26.2c0-14.5-11.8-26.2-26.1-26.2
								C213.9,84,202.3,95.6,202.3,110.1"/>
						</g>
						<g>
							<polygon class="st61" points="1336.6,845.9 1283,899.6 1229.4,845.9 1283,792.3 							"/>
						</g>
					</g>
				</g>
			</g>
		</g>
	</g>
	<rect style="clip-path:url(#SVGID_2_);fill:none;" width="1440" height="1680"/>
</g>
</svg>
