<?xml version="1.0" encoding="utf-8"?>
<!-- Generator: Adobe Illustrator 16.0.0, SVG Export Plug-In . SVG Version: 6.00 Build 0)  -->
<!DOCTYPE svg PUBLIC "-//W3C//DTD SVG 1.1//EN" "http://www.w3.org/Graphics/SVG/1.1/DTD/svg11.dtd">
<svg version="1.1" id="Layer_1" xmlns="http://www.w3.org/2000/svg" xmlns:xlink="http://www.w3.org/1999/xlink" x="0px" y="0px"
	 width="1440px" height="840px" viewBox="0 0 1440 840" style="enable-background:new 0 0 1440 840;" xml:space="preserve">
<style type="text/css">
<![CDATA[
	.st0{clip-path:url(#SVGID_11_);fill-rule:evenodd;clip-rule:evenodd;fill:#8C6239;}
	.st1{clip-path:url(#SVGID_24_);fill-rule:evenodd;clip-rule:evenodd;fill:#8C6239;}
	.st2{clip-path:url(#SVGID_24_);fill:none;stroke:#FF7BAC;stroke-width:12;stroke-linecap:round;stroke-miterlimit:10;}
	.st3{clip-path:url(#SVGID_24_);fill-rule:evenodd;clip-rule:evenodd;fill:#F04C33;}
	.st4{display:none;fill:#FFCC00;}
	.st5{clip-path:url(#SVGID_24_);fill-rule:evenodd;clip-rule:evenodd;fill:#F15A24;}
	.st6{clip-path:url(#SVGID_42_);fill-rule:evenodd;clip-rule:evenodd;}
	.st7{clip-path:url(#SVGID_11_);fill-rule:evenodd;clip-rule:evenodd;fill:#F2F2F2;}
	.st8{clip-path:url(#SVGID_44_);fill-rule:evenodd;clip-rule:evenodd;}
	.st9{clip-path:url(#SVGID_46_);fill-rule:evenodd;clip-rule:evenodd;}
	.st10{clip-path:url(#SVGID_19_);fill:none;stroke:#FF7BAC;stroke-width:12;stroke-linecap:round;stroke-miterlimit:10;}
	.st11{clip-path:url(#SVGID_44_);fill-rule:evenodd;clip-rule:evenodd;fill:#EB707D;}
	.st12{clip-path:url(#SVGID_48_);fill-rule:evenodd;clip-rule:evenodd;}
	.st13{display:none;fill:#660099;}
	.st14{clip-path:url(#SVGID_24_);fill-rule:evenodd;clip-rule:evenodd;fill:#F6E6DB;}
	.st15{clip-path:url(#SVGID_6_);fill-rule:evenodd;clip-rule:evenodd;fill:#9900CC;}
	.st16{clip-path:url(#SVGID_11_);fill-rule:evenodd;clip-rule:evenodd;fill:#F7931E;}
	.st17{clip-path:url(#SVGID_24_);fill-rule:evenodd;clip-rule:evenodd;fill:#F7931E;}
	.st18{clip-path:url(#SVGID_29_);fill-rule:evenodd;clip-rule:evenodd;fill:#ED1C24;}
	.st19{clip-path:url(#SVGID_42_);fill-rule:evenodd;clip-rule:evenodd;fill:#FFFFFF;}
	.st20{clip-path:url(#SVGID_24_);fill-rule:evenodd;clip-rule:evenodd;fill:#93278F;}
	.st21{clip-path:url(#SVGID_6_);fill-rule:evenodd;clip-rule:evenodd;fill:#CC3366;}
	.st22{clip-path:url(#SVGID_11_);fill-rule:evenodd;clip-rule:evenodd;fill:#FBB03B;}
	.st23{clip-path:url(#SVGID_11_);fill-rule:evenodd;clip-rule:evenodd;fill:#FF3399;}
	.st24{clip-path:url(#SVGID_11_);fill-rule:evenodd;clip-rule:evenodd;fill:#FF3700;}
	.st25{clip-path:url(#SVGID_11_);fill-rule:evenodd;clip-rule:evenodd;fill:#FF66AD;}
	.st26{clip-path:url(#SVGID_24_);fill-rule:evenodd;clip-rule:evenodd;fill:#FF6600;}
	.st27{clip-path:url(#SVGID_24_);fill-rule:evenodd;clip-rule:evenodd;fill:#FF7BAC;}
	.st28{clip-path:url(#SVGID_11_);fill-rule:evenodd;clip-rule:evenodd;fill:#FF9470;}
	.st29{clip-path:url(#SVGID_11_);fill-rule:evenodd;clip-rule:evenodd;fill:#FFAE00;}
	.st30{clip-path:url(#SVGID_11_);fill-rule:evenodd;clip-rule:evenodd;fill:#FFC7FF;}
	.st31{clip-path:url(#SVGID_11_);fill-rule:evenodd;clip-rule:evenodd;fill:#FFCC00;}
	.st32{clip-path:url(#SVGID_11_);fill-rule:evenodd;clip-rule:evenodd;fill:#FFCC33;}
	.st33{clip-path:url(#SVGID_11_);fill-rule:evenodd;clip-rule:evenodd;fill:#FFCC99;}
	.st34{clip-path:url(#SVGID_11_);fill-rule:evenodd;clip-rule:evenodd;fill:#FFD9D9;}
	.st35{clip-path:url(#SVGID_24_);fill-rule:evenodd;clip-rule:evenodd;fill:#FFCC00;}
	.st36{clip-path:url(#SVGID_11_);fill-rule:evenodd;clip-rule:evenodd;fill:#FFFFFF;}
	.st37{clip-path:url(#SVGID_24_);fill-rule:evenodd;clip-rule:evenodd;fill:#FFFFFF;}
	.st38{display:none;fill:#D3135A;}
	.st39{clip-path:url(#SVGID_19_);fill-rule:evenodd;clip-rule:evenodd;fill:#93278F;}
	.st40{clip-path:url(#SVGID_11_);fill:#D31900;}
	.st41{clip-path:url(#SVGID_34_);fill-rule:evenodd;clip-rule:evenodd;fill:#996633;}
	.st42{clip-path:url(#SVGID_29_);fill-rule:evenodd;clip-rule:evenodd;fill:#F7931E;}
	.st43{clip-path:url(#SVGID_34_);fill-rule:evenodd;clip-rule:evenodd;fill:#99CC66;}
	.st44{clip-path:url(#SVGID_11_);fill-rule:evenodd;clip-rule:evenodd;fill:#CC3300;}
	.st45{clip-path:url(#SVGID_11_);fill-rule:evenodd;clip-rule:evenodd;fill:#CC66FF;}
	.st46{clip-path:url(#SVGID_24_);fill-rule:evenodd;clip-rule:evenodd;fill:#CC9933;}
	.st47{clip-path:url(#SVGID_11_);fill-rule:evenodd;clip-rule:evenodd;fill:#CCCCCC;}
	.st48{clip-path:url(#SVGID_19_);fill-rule:evenodd;clip-rule:evenodd;fill:#FBB03B;}
	.st49{clip-path:url(#SVGID_34_);fill-rule:evenodd;clip-rule:evenodd;fill:#FF0066;}
	.st50{clip-path:url(#SVGID_34_);fill-rule:evenodd;clip-rule:evenodd;fill:#FF9966;}
	.st51{clip-path:url(#SVGID_34_);fill-rule:evenodd;clip-rule:evenodd;fill:#FFCC00;}
	.st52{clip-path:url(#SVGID_15_);fill:#FF8133;}
	.st53{clip-path:url(#SVGID_19_);fill-rule:evenodd;clip-rule:evenodd;fill:#FF6600;}
	.st54{clip-path:url(#SVGID_19_);fill-rule:evenodd;clip-rule:evenodd;fill:#FF6633;}
	.st55{clip-path:url(#SVGID_19_);fill-rule:evenodd;clip-rule:evenodd;fill:#FF7BAC;}
	.st56{clip-path:url(#SVGID_19_);fill-rule:evenodd;clip-rule:evenodd;fill:#FF9900;}
	.st57{clip-path:url(#SVGID_11_);fill-rule:evenodd;clip-rule:evenodd;fill:#336699;}
	.st58{clip-path:url(#SVGID_19_);fill-rule:evenodd;clip-rule:evenodd;fill:#FFCC00;}
	.st59{clip-path:url(#SVGID_19_);fill-rule:evenodd;clip-rule:evenodd;fill:#FFCC66;}
	.st60{clip-path:url(#SVGID_19_);fill-rule:evenodd;clip-rule:evenodd;fill:#FFDB00;}
	.st61{clip-path:url(#SVGID_11_);fill-rule:evenodd;clip-rule:evenodd;fill:#33CCFF;}
	.st62{clip-path:url(#SVGID_44_);fill-rule:evenodd;clip-rule:evenodd;fill:#999999;}
	.st63{clip-path:url(#SVGID_34_);fill-rule:evenodd;clip-rule:evenodd;fill:#CC6633;}
	.st64{clip-path:url(#SVGID_29_);fill-rule:evenodd;clip-rule:evenodd;fill:#FBB03B;}
	.st65{clip-path:url(#SVGID_15_);fill-rule:evenodd;clip-rule:evenodd;fill:#820082;}
	.st66{clip-path:url(#SVGID_44_);fill-rule:evenodd;clip-rule:evenodd;fill:#FFCC00;}
	.st67{clip-path:url(#SVGID_24_);fill-rule:evenodd;clip-rule:evenodd;fill:#00ABFF;}
	.st68{clip-path:url(#SVGID_29_);fill-rule:evenodd;clip-rule:evenodd;fill:#FF0066;}
	.st69{clip-path:url(#SVGID_29_);fill-rule:evenodd;clip-rule:evenodd;fill:#FF7BAC;}
	.st70{clip-path:url(#SVGID_29_);fill-rule:evenodd;clip-rule:evenodd;fill:#FFFFFF;}
	.st71{clip-path:url(#SVGID_2_);}
	.st72{clip-path:url(#SVGID_4_);}
	.st73{clip-path:url(#SVGID_44_);fill-rule:evenodd;clip-rule:evenodd;fill:#666666;}
	.st74{clip-path:url(#SVGID_44_);fill-rule:evenodd;clip-rule:evenodd;fill:#333333;}
	.st75{clip-path:url(#SVGID_34_);fill:none;stroke:#FF0033;stroke-width:8;stroke-linecap:round;stroke-miterlimit:10;}
	.st76{display:none;clip-path:url(#SVGID_15_);fill-rule:evenodd;clip-rule:evenodd;fill:#D4145A;}
	.st77{fill:#FFCC00;}
	.st78{fill:#FFFFFF;}
	.st79{fill:none;}
	.st80{clip-path:url(#SVGID_11_);fill-rule:evenodd;clip-rule:evenodd;fill:#A60008;}
	.st81{clip-path:url(#SVGID_24_);fill-rule:evenodd;clip-rule:evenodd;fill:#A67C52;}
	.st82{clip-path:url(#SVGID_11_);fill:#E6E6E6;}
	.st83{clip-path:url(#SVGID_29_);fill-rule:evenodd;clip-rule:evenodd;fill:#00ABFF;}
	.st84{clip-path:url(#SVGID_21_);fill:url(#SVGID_22_);}
	.st85{clip-path:url(#SVGID_6_);fill-rule:evenodd;clip-rule:evenodd;fill:#E06C00;}
	.st86{clip-path:url(#SVGID_48_);fill-rule:evenodd;clip-rule:evenodd;fill:#EC1E24;}
	.st87{clip-path:url(#SVGID_19_);fill:#FF7BAC;}
	.st88{clip-path:url(#SVGID_11_);fill:#B3B3B3;}
	.st89{clip-path:url(#SVGID_15_);fill-rule:evenodd;clip-rule:evenodd;fill:#F9AA8F;}
	.st90{clip-path:url(#SVGID_46_);fill-rule:evenodd;clip-rule:evenodd;fill:#FFFFFF;}
	.st91{clip-path:url(#SVGID_29_);fill-rule:evenodd;clip-rule:evenodd;fill:#D76367;}
	.st92{clip-path:url(#SVGID_19_);fill-rule:evenodd;clip-rule:evenodd;fill:#A67C52;}
	.st93{clip-path:url(#SVGID_11_);fill-rule:evenodd;clip-rule:evenodd;fill:#E06C00;}
	.st94{clip-path:url(#SVGID_15_);fill-rule:evenodd;clip-rule:evenodd;fill:#C90007;}
	.st95{clip-path:url(#SVGID_15_);fill-rule:evenodd;clip-rule:evenodd;fill:#FF0009;}
	.st96{clip-path:url(#SVGID_15_);fill-rule:evenodd;clip-rule:evenodd;fill:#FF5900;}
	.st97{clip-path:url(#SVGID_15_);fill-rule:evenodd;clip-rule:evenodd;fill:#FF99FF;}
	.st98{clip-path:url(#SVGID_11_);fill-rule:evenodd;clip-rule:evenodd;fill:#E6E6E6;}
	.st99{clip-path:url(#SVGID_15_);fill-rule:evenodd;clip-rule:evenodd;fill:#FFCB05;}
	.st100{clip-path:url(#SVGID_46_);fill-rule:evenodd;clip-rule:evenodd;fill:#3399FF;}
	.st101{clip-path:url(#SVGID_15_);fill-rule:evenodd;clip-rule:evenodd;fill:#FFFFFF;}
	.st102{clip-path:url(#SVGID_31_);fill:url(#SVGID_32_);}
	.st103{clip-path:url(#SVGID_6_);fill-rule:evenodd;clip-rule:evenodd;fill:#ED1C24;}
	.st104{clip-path:url(#SVGID_29_);fill-rule:evenodd;clip-rule:evenodd;fill:#404041;}
	.st105{clip-path:url(#SVGID_11_);fill-rule:evenodd;clip-rule:evenodd;}
	.st106{clip-path:url(#SVGID_15_);fill-rule:evenodd;clip-rule:evenodd;}
	.st107{clip-path:url(#SVGID_11_);fill-rule:evenodd;clip-rule:evenodd;fill:#81AFDE;}
	.st108{clip-path:url(#SVGID_11_);fill:#F15A24;}
	.st109{clip-path:url(#SVGID_15_);fill-rule:evenodd;clip-rule:evenodd;fill:#CC0066;}
	.st110{clip-path:url(#SVGID_11_);}
	.st111{clip-path:url(#SVGID_13_);}
	.st112{clip-path:url(#SVGID_17_);}
	.st113{clip-path:url(#SVGID_36_);}
	.st114{clip-path:url(#SVGID_38_);}
	.st115{clip-path:url(#SVGID_40_);}
	.st116{clip-path:url(#SVGID_42_);}
	.st117{clip-path:url(#SVGID_8_);fill:url(#SVGID_9_);}
	.st118{clip-path:url(#SVGID_24_);fill:none;stroke:#000000;stroke-width:12;stroke-linecap:round;stroke-miterlimit:10;}
	.st119{clip-path:url(#SVGID_11_);fill:#F7931E;}
	.st120{clip-path:url(#SVGID_24_);fill-rule:evenodd;clip-rule:evenodd;}
	.st121{clip-path:url(#SVGID_44_);fill-rule:evenodd;clip-rule:evenodd;fill:#E13E4F;}
	.st122{clip-path:url(#SVGID_11_);fill-rule:evenodd;clip-rule:evenodd;fill:#ED1C24;}
	.st123{clip-path:url(#SVGID_24_);fill-rule:evenodd;clip-rule:evenodd;fill:#ED1C24;}
	.st124{clip-path:url(#SVGID_29_);fill-rule:evenodd;clip-rule:evenodd;}
	.st125{clip-path:url(#SVGID_19_);fill:none;stroke:#000000;stroke-width:10;stroke-linecap:round;stroke-miterlimit:10;}
	.st126{clip-path:url(#SVGID_44_);fill-rule:evenodd;clip-rule:evenodd;fill:#E6E6E6;}
	.st127{clip-path:url(#SVGID_44_);fill-rule:evenodd;clip-rule:evenodd;fill:#E6E7E8;}
	.st128{clip-path:url(#SVGID_15_);fill-rule:evenodd;clip-rule:evenodd;fill:#6D6E70;}
	.st129{clip-path:url(#SVGID_48_);fill-rule:evenodd;clip-rule:evenodd;fill:#FFFFFF;}
	.st130{clip-path:url(#SVGID_15_);fill-rule:evenodd;clip-rule:evenodd;fill:#0099FF;}
	.st131{clip-path:url(#SVGID_26_);fill:url(#SVGID_27_);}
	.st132{clip-path:url(#SVGID_34_);fill-rule:evenodd;clip-rule:evenodd;}
]]>
</style>
<rect class="st38" width="1440" height="840"/>
<g>
	<defs>
		<rect id="SVGID_12_" width="1440" height="840"/>
	</defs>
	<clipPath id="SVGID_2_">
		<use xlink:href="#SVGID_12_"  style="overflow:visible;"/>
	</clipPath>
	<g class="st71">
		<defs>
			<rect id="SVGID_14_" x="-283.4" y="-532.1" width="1917.2" height="1917.2"/>
		</defs>
		<clipPath id="SVGID_4_">
			<use xlink:href="#SVGID_14_"  style="overflow:visible;"/>
		</clipPath>
		<path style="display:none;clip-path:url(#SVGID_4_);fill-rule:evenodd;clip-rule:evenodd;fill:#D4145A;" d="M1633.8,426.5
			c0,529.4-429.2,958.6-958.6,958.6s-958.6-429.2-958.6-958.6s429.2-958.6,958.6-958.6S1633.8-102.9,1633.8,426.5"/>
		
			<rect x="730.4" y="606.2" style="clip-path:url(#SVGID_4_);fill-rule:evenodd;clip-rule:evenodd;fill:#FF5900;" width="528.2" height="237.5"/>
		<path style="clip-path:url(#SVGID_4_);fill-rule:evenodd;clip-rule:evenodd;fill:#820082;" d="M645.6,286.1v387.6
			c0,32.5-26.6,59.1-59.1,59.1c-22.5,0-42.2-12.8-52.2-31.4c15.8,56.8,57.4,103.1,111.3,125.3c0,0,0,0,0,0c1.3,0.6,2.7,1.1,4,1.6
			c0.1,0.1,0.3,0.1,0.4,0.2c1.2,0.5,2.5,0.9,3.7,1.4c0.2,0.1,0.3,0.1,0.5,0.2c1.3,0.5,2.6,0.9,4,1.4c0.1,0,0.1,0,0.2,0.1
			c4.3,1.4,8.6,2.7,13,3.8c0.2,0,0.3,0.1,0.5,0.1c1.2,0.3,2.5,0.6,3.7,0.9c0.3,0.1,0.6,0.1,0.9,0.2c1.2,0.3,2.3,0.5,3.5,0.7
			c0.3,0.1,0.6,0.1,0.9,0.2c1.2,0.2,2.4,0.5,3.6,0.7c0.3,0,0.5,0.1,0.8,0.1c2.9,0.5,5.9,1,8.9,1.3c0.3,0,0.5,0.1,0.8,0.1
			c1.2,0.1,2.4,0.3,3.6,0.4c0.5,0,0.9,0.1,1.4,0.1c1,0.1,2,0.2,3,0.3c0.5,0,1.1,0.1,1.6,0.1c1,0.1,1.9,0.1,2.9,0.2
			c0.5,0,1.1,0.1,1.6,0.1c1,0,2,0.1,3.1,0.1c0.5,0,0.9,0,1.4,0c1.5,0,3,0.1,4.5,0.1h0c1.5,0,3.1,0,4.6-0.1c0.5,0,1,0,1.5-0.1
			c1,0,2.1-0.1,3.1-0.1c0.6,0,1.2-0.1,1.8-0.1c0.9-0.1,1.9-0.1,2.8-0.2c0.6,0,1.2-0.1,1.9-0.1c0.9-0.1,1.8-0.2,2.7-0.2
			c0.6-0.1,1.3-0.1,1.9-0.2c0.9-0.1,1.8-0.2,2.7-0.3c0.6-0.1,1.2-0.1,1.8-0.2c0.9-0.1,1.9-0.3,2.8-0.4c0.6-0.1,1.1-0.2,1.7-0.2
			c1.1-0.2,2.1-0.3,3.2-0.5c0.4-0.1,0.8-0.1,1.2-0.2c1.5-0.3,2.9-0.5,4.4-0.8c0.4-0.1,0.8-0.2,1.3-0.3c1-0.2,2.1-0.4,3.1-0.7
			c0.6-0.1,1.1-0.3,1.7-0.4c0.9-0.2,1.7-0.4,2.6-0.6c0.6-0.2,1.2-0.3,1.9-0.5c0.8-0.2,1.6-0.4,2.4-0.7c0.6-0.2,1.3-0.4,1.9-0.5
			c0.8-0.2,1.6-0.5,2.4-0.7c0.6-0.2,1.3-0.4,1.9-0.6c0.8-0.2,1.6-0.5,2.3-0.8c0.6-0.2,1.3-0.4,1.9-0.6c0.8-0.3,1.6-0.6,2.4-0.8
			c0.6-0.2,1.2-0.4,1.8-0.6c0.9-0.3,1.9-0.7,2.8-1.1c0.8-0.3,1.6-0.6,2.4-1c0.9-0.4,1.8-0.7,2.8-1.1c0.6-0.3,1.3-0.5,1.9-0.8
			c0.7-0.3,1.4-0.6,2.1-0.9c0.7-0.3,1.3-0.6,2-0.9c0.6-0.3,1.3-0.6,1.9-0.9c0.7-0.3,1.4-0.7,2-1c0.6-0.3,1.2-0.6,1.8-0.9
			c0.7-0.3,1.4-0.7,2.1-1.1c0.6-0.3,1.2-0.6,1.8-0.9c0.7-0.4,1.4-0.7,2.1-1.1c0.6-0.3,1.1-0.6,1.7-0.9c0.7-0.4,1.4-0.8,2.1-1.2
			c0.5-0.3,1-0.6,1.4-0.8c2.8-1.6,5.5-3.4,8.2-5.1c0.3-0.2,0.7-0.5,1-0.7c0.8-0.5,1.5-1.1,2.3-1.6c0.4-0.3,0.8-0.6,1.2-0.8
			c0.8-0.5,1.5-1.1,2.2-1.6c0.4-0.3,0.8-0.6,1.2-0.9c0.7-0.5,1.5-1.1,2.2-1.7c0.4-0.3,0.8-0.6,1.1-0.9c0.8-0.6,1.5-1.2,2.2-1.8
			c0.3-0.3,0.7-0.5,1-0.8c0.8-0.6,1.6-1.3,2.3-1.9c0.2-0.2,0.5-0.4,0.7-0.6c3.9-3.3,7.6-6.7,11.2-10.2c0.1-0.1,0.2-0.1,0.2-0.2
			c0.8-0.8,1.6-1.6,2.4-2.5c0.2-0.2,0.3-0.4,0.5-0.5c0.8-0.8,1.6-1.6,2.3-2.4c0.2-0.2,0.4-0.4,0.5-0.6c0.8-0.8,1.5-1.7,2.3-2.5
			c0.2-0.2,0.3-0.3,0.5-0.5c0.8-0.9,1.6-1.8,2.3-2.7c0.1-0.1,0.1-0.2,0.2-0.3c5.2-6.1,10-12.5,14.4-19.2c0,0,0.1-0.1,0.1-0.1
			c0.7-1.1,1.4-2.2,2.1-3.3l0.1-0.2c18.3-29.2,28.9-63.7,28.9-100.5v-69.3l24.9-38.7l1.8-36.8l-26.7-206.1L645.6,286.1z"/>
		<path style="clip-path:url(#SVGID_4_);fill-rule:evenodd;clip-rule:evenodd;fill:#820082;" d="M1367.3,741.3
			c-30,0-54.4-24.5-54.5-54.5l-0.8-355.1l-241.5,10.5v323.4c0,96.6,79,175.6,175.6,175.6c80.4,0,148.5-54.7,169.2-128.7
			C1406.2,729.6,1388.1,741.3,1367.3,741.3"/>
		<path style="clip-path:url(#SVGID_4_);fill-rule:evenodd;clip-rule:evenodd;fill:#820082;" d="M1316.2,339.8
			c0,187.1-151.6,338.7-338.7,338.7S638.8,526.9,638.8,339.8c0-187.1,151.6-338.7,338.7-338.7S1316.2,152.8,1316.2,339.8"/>
		<path style="clip-path:url(#SVGID_4_);fill-rule:evenodd;clip-rule:evenodd;fill:#FFCB05;" d="M906,512.3v135.7
			c0,45.3,37.1,82.4,82.4,82.4h0c45.4,0,82.3-37.1,82.4-82.4l0.2-70.6l-27.9-34.9l-3.9-47.4l32.3-20.2h69.7V346.5l148.4,0.1
			l-99.7-151.8c-4.6-7.7-9.7-14.8-15.6-21.6c-28.1-32.6-69.6-53.3-115.7-53.3c-84,0-152.7,68.7-152.7,152.7v37.3V512.3z"/>
		<path style="clip-path:url(#SVGID_4_);fill-rule:evenodd;clip-rule:evenodd;fill:#FF0009;" d="M1114.4,446.6h-38.7
			c-36.5,0-66.4,29.9-66.4,66.4v0c0,36.5,29.9,66.4,66.4,66.4h38.7V524h-41.9c-6.1,0-11-5-11-11v0c0-6.1,5-11,11-11h41.9V446.6z"/>
		<path style="clip-path:url(#SVGID_4_);fill-rule:evenodd;clip-rule:evenodd;fill:#CC0066;" d="M1114.4,446.6
			c-15.3,0-27.7,12.4-27.7,27.7c0,15.3,12.4,27.7,27.7,27.7c15.3,0,27.7-12.4,27.7-27.7C1142.1,459,1129.7,446.6,1114.4,446.6"/>
		<path style="clip-path:url(#SVGID_4_);fill-rule:evenodd;clip-rule:evenodd;fill:#CC0066;" d="M1114.4,524
			c-15.3,0-27.7,12.4-27.7,27.7c0,15.3,12.4,27.7,27.7,27.7c15.3,0,27.7-12.4,27.7-27.7C1142.1,536.4,1129.7,524,1114.4,524"/>
		
			<rect x="999.7" y="203.3" style="clip-path:url(#SVGID_4_);fill-rule:evenodd;clip-rule:evenodd;fill:#6D6E70;" width="14.4" height="195.6"/>
		<path style="clip-path:url(#SVGID_4_);fill-rule:evenodd;clip-rule:evenodd;fill:#FF0009;" d="M878.1,230.9L878.1,230.9
			c-52.1,0-94.8,42.7-94.8,94.8v67c0,52.1,42.7,94.8,94.8,94.8c52.1,0,94.8-42.7,94.8-94.8v-67C972.9,273.6,930.2,230.9,878.1,230.9
			"/>
		<path style="clip-path:url(#SVGID_4_);fill-rule:evenodd;clip-rule:evenodd;fill:#C90007;" d="M878.1,299.9L878.1,299.9
			c-17.6,0-32,14.4-32,32v67c0,17.6,14.4,32,32,32c17.6,0,32-14.4,32-32v-67C910.1,314.3,895.7,299.9,878.1,299.9"/>
		<path style="clip-path:url(#SVGID_4_);fill-rule:evenodd;clip-rule:evenodd;fill:#FFFFFF;" d="M1082.7,225.9
			c-30.8,0-59.5,9.6-83,26v93.6c23.5,16.4,52.1,26,83,26c53.9,0,100.9-29.3,126.1-72.8C1183.6,255.1,1136.6,225.9,1082.7,225.9"/>
		<path style="clip-path:url(#SVGID_4_);fill-rule:evenodd;clip-rule:evenodd;fill:#0099FF;" d="M1070.4,234.4
			c-35.5,0-64.3,28.8-64.3,64.3c0,35.5,28.8,64.3,64.3,64.3c35.5,0,64.3-28.8,64.3-64.3C1134.7,263.1,1105.9,234.4,1070.4,234.4"/>
		<path style="clip-path:url(#SVGID_4_);fill-rule:evenodd;clip-rule:evenodd;" d="M1070.4,330.7c-17.7,0-32.1-14.4-32.1-32.1
			c0-17.7,14.4-32.1,32.1-32.1c17.7,0,32.1,14.4,32.1,32.1C1102.5,316.3,1088.1,330.7,1070.4,330.7"/>
		<path style="clip-path:url(#SVGID_4_);fill-rule:evenodd;clip-rule:evenodd;fill:#F9AA8F;" d="M1072.9,501.8c-6.1,0-11,5-11,11v0
			c0,6.1,5,11,11,11h97.9c26.6,0,48.4,21.8,48.4,48.4v22.1c0,22.5,18.4,40.9,40.9,40.9c22.5,0,40.9-18.4,40.9-40.9v-12.8
			c0-43.8-35.9-79.7-79.7-79.7H1072.9z"/>
		<polygon style="clip-path:url(#SVGID_4_);fill:#FF8133;" points="-191.4,42.3 -191.4,725.6 910.1,392 910.1,334.7 		"/>
		<path style="clip-path:url(#SVGID_4_);fill-rule:evenodd;clip-rule:evenodd;fill:#FF99FF;" d="M297.1,457.2l-47.9-0.1
			c-29.6-0.1-53.7-24.3-53.7-53.9l0.2-106c5-27.6,29.4-48.6,58.4-48.6l51.3,0.1c8.2,0,14.8,6.7,14.8,14.9c0,8.2-6.7,14.8-14.9,14.8
			l-28.5-0.1c-5.2,0-9.5,4.2-9.5,9.5c0,5.2,4.2,9.5,9.5,9.5l20.6,0l138.6,0.3c7.4,0,13.5,6.1,13.5,13.5c0,7.4-6.1,13.5-13.5,13.5
			l-138.4-0.3c-4.7,0-8.6,3.9-8.6,8.6c0,4.7,3.9,8.6,8.6,8.6l85.7,0.1c7.4,0,13.5,6.1,13.5,13.5c0,7.4-6.1,13.5-13.5,13.5l-85.7-0.1
			c-4.7,0-8.6,3.9-8.6,8.6c0,4.7,3.9,8.6,8.6,8.6l85.7,0.1c7.4,0,13.5,6.1,13.5,13.5c0,7.4-6.1,13.5-13.5,13.5l-85.7-0.1
			c-4.7,0-8.6,3.9-8.6,8.6c0,4.7,3.9,8.6,8.6,8.6l85.7,0.1c7.4,0,13.5,6.1,13.5,13.5c0,7.4-6.1,13.5-13.5,13.5L297.1,457.2z"/>
		<path style="clip-path:url(#SVGID_4_);fill-rule:evenodd;clip-rule:evenodd;fill:#FFFFFF;" d="M313.6,263.7L313.6,263.7
			c0,5.2-4.3,9.5-9.5,9.4l-12.6,0c-5.2,0-9.4-4.3-9.4-9.5v0c0-5.2,4.3-9.4,9.5-9.4l12.6,0C309.4,254.2,313.6,258.5,313.6,263.7"/>
		<path style="clip-path:url(#SVGID_4_);fill-rule:evenodd;clip-rule:evenodd;fill:#FFFFFF;" d="M443.6,311.3L443.6,311.3
			c0,4.2-3.5,7.7-7.7,7.7l-10.3,0c-4.2,0-7.7-3.5-7.7-7.7v0c0-4.2,3.5-7.7,7.7-7.7l10.3,0C440.1,303.6,443.6,307.1,443.6,311.3"/>
	</g>
</g>
<rect class="st79" width="1440" height="840"/>
</svg>
