<?xml version="1.0" encoding="utf-8"?>
<!-- Generator: Adobe Illustrator 23.0.3, SVG Export Plug-In . SVG Version: 6.00 Build 0)  -->
<svg version="1.1" id="Layer_1" xmlns="http://www.w3.org/2000/svg" xmlns:xlink="http://www.w3.org/1999/xlink" x="0px" y="0px"
	 viewBox="0 0 1440 1680" style="enable-background:new 0 0 1440 1680;" xml:space="preserve">
<style type="text/css">
	.st0{fill:#9900CC;}
	.st1{display:none;fill:#660099;}
	.st2{display:none;fill-rule:evenodd;clip-rule:evenodd;fill:#D4145A;}
	.st3{fill-rule:evenodd;clip-rule:evenodd;fill:#CC3366;}
	.st4{fill-rule:evenodd;clip-rule:evenodd;fill:#ED1C24;}
	.st5{fill-rule:evenodd;clip-rule:evenodd;fill:#E06C00;}
	.st6{fill-rule:evenodd;clip-rule:evenodd;fill:url(#SVGID_1_);}
	.st7{fill-rule:evenodd;clip-rule:evenodd;fill:#FF3399;}
	.st8{fill-rule:evenodd;clip-rule:evenodd;fill:#F2F2F2;}
	.st9{fill-rule:evenodd;clip-rule:evenodd;fill:#33CCFF;}
	.st10{fill-rule:evenodd;clip-rule:evenodd;fill:#CC66FF;}
	.st11{fill-rule:evenodd;clip-rule:evenodd;fill:#FFCC00;}
	.st12{fill-rule:evenodd;clip-rule:evenodd;fill:#F7931E;}
	.st13{fill-rule:evenodd;clip-rule:evenodd;fill:#FBB03B;}
	.st14{fill-rule:evenodd;clip-rule:evenodd;fill:#FFCC33;}
	.st15{fill-rule:evenodd;clip-rule:evenodd;}
	.st16{fill:#F15A24;}
	.st17{fill-rule:evenodd;clip-rule:evenodd;fill:#FFC7FF;}
	.st18{fill-rule:evenodd;clip-rule:evenodd;fill:#FF3700;}
	.st19{fill-rule:evenodd;clip-rule:evenodd;fill:#FF66AD;}
	.st20{fill-rule:evenodd;clip-rule:evenodd;fill:#CC3300;}
	.st21{fill-rule:evenodd;clip-rule:evenodd;fill:#FFD9D9;}
	.st22{fill-rule:evenodd;clip-rule:evenodd;fill:#FFCC99;}
	.st23{fill-rule:evenodd;clip-rule:evenodd;fill:#CCCCCC;}
	.st24{fill-rule:evenodd;clip-rule:evenodd;fill:#E6E6E6;}
	.st25{fill-rule:evenodd;clip-rule:evenodd;fill:#A60008;}
	.st26{fill-rule:evenodd;clip-rule:evenodd;fill:#FF9470;}
	.st27{fill-rule:evenodd;clip-rule:evenodd;fill:#FFAE00;}
	.st28{fill:#D31900;}
	.st29{fill-rule:evenodd;clip-rule:evenodd;fill:#336699;}
	.st30{fill-rule:evenodd;clip-rule:evenodd;fill:#81AFDE;}
	.st31{fill-rule:evenodd;clip-rule:evenodd;fill:#8C6239;}
	.st32{fill:#B3B3B3;}
	.st33{fill:#F7931E;}
	.st34{fill:#E6E6E6;}
	.st35{fill-rule:evenodd;clip-rule:evenodd;fill:#FFFFFF;}
	.st36{fill:#FFE10D;}
</style>
<g>
	<path class="st0" d="M111.7,391.2c0,337,273.2,610.2,610.2,610.2s610.2-273.2,610.2-610.2c0-148.9-53.3-285.3-141.9-391.2H253.6
		C165,105.9,111.7,242.3,111.7,391.2z"/>
</g>
<rect class="st1" width="1440" height="1680"/>
<g>
	<g>
		<g>
			<g>
				<path class="st2" d="M1431.8,2156.5c0,529.4-429.2,958.6-958.6,958.6s-958.6-429.2-958.6-958.6s429.2-958.6,958.6-958.6
					S1431.8,1627.1,1431.8,2156.5"/>
			</g>
		</g>
	</g>
</g>
<path class="st3" d="M884.4,655.1h196v321.4c0,84.9,47.7,159.2,117.7,197.4v1.8H767v-2.4c69.8-38.2,117.3-112.4,117.3-197.2v-321
	H884.4z"/>
<path class="st4" d="M749.7,600.7c9.5,4.9,19.4,8.4,29.4,10.5l123.2,25l85.5-239.7l-58.7-50.2l-59-12l-74.5,141.1
	c-12.7,24-42.7,33.3-66.8,20.6l0,0c-24-12.7-33.3-42.7-20.6-66.8l-7.6,14.4c-29.6,56-8.3,125.9,47.2,156.1
	C748.4,600,749.1,600.4,749.7,600.7L749.7,600.7z"/>
<path class="st4" d="M1123.9,598.2L1123.9,598.2c-25.8,0-47-21.1-47-47v-186c0-25.8,21.1-47,47-47l0,0c25.8,0,47,21.1,47,47v186
	C1170.8,577,1149.7,598.2,1123.9,598.2z"/>
<path class="st5" d="M1123.9,889.1L1123.9,889.1c-25.8,0-47-21.1-47-47V546.7c0-25.8,21.1-47,47-47l0,0c25.8,0,47,21.1,47,47v295.5
	C1170.8,868,1149.7,889.1,1123.9,889.1z"/>
<linearGradient id="SVGID_1_" gradientUnits="userSpaceOnUse" x1="807.2864" y1="1084.7277" x2="1170.6656" y2="1294.3695" gradientTransform="matrix(1 0 0 -1 0 1680)">
	<stop  offset="0" style="stop-color:#FF7BAC"/>
	<stop  offset="0.2851" style="stop-color:#FFA5C6"/>
	<stop  offset="0.7568" style="stop-color:#FFE6EF"/>
	<stop  offset="0.9797" style="stop-color:#FFFFFF"/>
</linearGradient>
<path class="st6" d="M981.3,739.2L981.3,739.2c-53.9,0-98-44.1-98-98V497.5H806l77.4-149c0-53.9,44.1-98,98-98l0,0
	c53.9,0,98,44.1,98,98v292.7C1079.3,695.1,1035.2,739.2,981.3,739.2z"/>
<g>
	<path class="st7" d="M872.7,616.5h43c20,0,36.4-16.4,36.4-36.4l0,0c0-20-16.4-36.4-36.4-36.4h-43v30.7h45.6c3.1,0,5.7,2.6,5.7,5.7
		l0,0c0,3.1-2.6,5.7-5.7,5.7h-45.6V616.5L872.7,616.5z"/>
	<path class="st7" d="M854.5,559.1L854.5,559.1c0,8.4,6.9,15.3,15.3,15.3h15.3v-30.7h-15.3C861.4,543.7,854.5,550.6,854.5,559.1
		L854.5,559.1z"/>
	<path class="st7" d="M854.5,601.1L854.5,601.1c0,8.4,6.9,15.3,15.3,15.3h15.3v-30.7h-15.3C861.4,585.8,854.5,592.7,854.5,601.1
		L854.5,601.1z"/>
</g>
<path class="st4" d="M1170.8,371.5c-108.9,0-266.1,0-420.9,0c0-116.2,94.2-210.4,210.4-210.4S1170.8,255.3,1170.8,371.5z"/>
<circle class="st8" cx="960.4" cy="376.9" r="52"/>
<circle class="st9" cx="960.4" cy="376.9" r="29"/>
<path class="st10" d="M1079.3,537.7c2.5,0.5,5,0.7,7.7,0.6c18.9-0.4,34.6-15.7,35.5-34.6c0.5-10.4-3.4-19.9-10-26.8
	c14.3-10.7,23.5-27.7,23.5-46.8c0-31.7-25.2-57.5-56.7-58.4V537.7L1079.3,537.7z"/>
<path class="st11" d="M609.2,703.2h198.6c29.6,0,53.7-24.2,53.7-53.7l0,0c0-29.6-24.2-53.7-53.7-53.7H609.2
	c-29.5,0-53.7,24.2-53.7,53.7l0,0C555.5,679.1,579.7,703.2,609.2,703.2L609.2,703.2z"/>
<path class="st12" d="M451.4,591.8h461.5c6.5,0,11.7-5.2,11.7-11.7l0,0c0-6.5-5.2-11.7-11.7-11.7H463c-6.5,0-11.7,5.2-11.7,11.7
	v11.7H451.4z"/>
<path class="st12" d="M620.9,676.9h175.2c15,0,27.4-12.4,27.4-27.4s-12.4-27.4-27.4-27.4H620.9c-15,0-27.4,12.4-27.4,27.4
	S605.9,676.9,620.9,676.9L620.9,676.9z"/>
<g>
	<polygon class="st13" points="656,566.8 656,536.2 660.9,536.2 660.9,566.8 	"/>
	<path class="st12" d="M643.5,529.3c0-8.3,6.7-15,15-15s15,6.7,15,15s-6.7,15-15,15S643.5,537.6,643.5,529.3L643.5,529.3z"/>
	<polygon class="st13" points="695.6,566.8 695.6,536.2 700.5,536.2 700.5,566.8 	"/>
	<path class="st12" d="M683.1,529.3c0-8.3,6.7-15,15-15s14.9,6.7,14.9,15s-6.7,15-14.9,15C689.8,544.3,683.1,537.6,683.1,529.3
		L683.1,529.3z"/>
	<polygon class="st13" points="735.2,566.8 735.2,536.2 740.1,536.2 740.1,566.8 	"/>
	<path class="st12" d="M722.7,529.3c0-8.3,6.7-15,15-15s14.9,6.7,14.9,15s-6.7,15-14.9,15C729.4,544.3,722.7,537.6,722.7,529.3
		L722.7,529.3z"/>
</g>
<path class="st14" d="M389.5,451.9c70.8,0,128.2,57.4,128.2,128.2s-57.4,128.2-128.2,128.2s-128.2-57.4-128.2-128.2
	S318.7,451.9,389.5,451.9L389.5,451.9z"/>
<path class="st12" d="M421.4,513.3c36.9,0,66.8,29.9,66.8,66.8c0,36.9-29.9,66.8-66.8,66.8s-66.8-29.9-66.8-66.8
	C354.6,543.2,384.5,513.3,421.4,513.3L421.4,513.3z"/>
<path class="st5" d="M849.5,846.5v-8.6c0-23.5,19.2-42.7,42.7-42.7h236c23.5,0,42.7,19.2,42.7,42.7v8.6c0,23.5-19.2,42.7-42.7,42.7
	h-236C868.7,889.1,849.5,869.9,849.5,846.5z"/>
<g>
	<path class="st15" d="M885.8,924.8c-26.3,0-47.7-21.4-47.7-47.7v-75c0-26.3,21.4-47.7,47.7-47.7s47.7,21.4,47.7,47.7v75
		C933.5,903.4,912.1,924.8,885.8,924.8z"/>
	<path class="st16" d="M885.8,774.3c7.3,0,14.3,2.9,19.6,8.2s8.2,12.2,8.2,19.6v75c0,7.3-2.9,14.3-8.2,19.6s-12.2,8.2-19.6,8.2
		s-14.3-2.9-19.6-8.2s-8.2-12.2-8.2-19.6v-75c0-7.3,2.9-14.3,8.2-19.6S878.5,774.3,885.8,774.3 M885.8,734.3
		c-37.3,0-67.7,30.5-67.7,67.7v75c0,37.3,30.5,67.7,67.7,67.7s67.7-30.5,67.7-67.7v-75C953.5,764.8,923,734.3,885.8,734.3
		L885.8,734.3z"/>
</g>
<polygon class="st17" points="913.5,858.4 736.5,858.4 724,826.6 913.5,826.6 "/>
<path class="st17" d="M734.9,673.2c0-5.3,4.3-9.6,9.6-9.6l0,0c5.3,0,9.6,4.3,9.6,9.6c0,19.4,0,64.8,0,84.1c0,9.3,7.6,16.9,16.9,16.9
	l0,0c9.3,0,16.9-7.6,16.9-16.9v-0.2v-38c0-5.3,4.3-9.6,9.6-9.6s9.6,4.3,9.6,9.6v38v29.2c0,39.6-32.4,72-72,72l0,0
	c-39.6,0-72-32.4-72-72c0-29.2,0-83.9,0-113.1c0-5.3,4.3-9.6,9.6-9.6l0,0c5.3,0,9.6,4.3,9.6,9.6c0,22.4,0,70.3,0,92.8
	c0,4.5,3.7,8.3,8.3,8.3l0,0c4.6,0,8.3-3.7,8.3-8.3c0-22.2,0-70.5,0-92.8c0-5.3,4.3-9.6,9.6-9.6l0,0c5.3,0,9.6,4.3,9.6,9.6
	c0,22.2,0,70.5,0,92.8c0,4.5,3.7,8.3,8.3,8.3l0,0c4.5,0,8.3-3.7,8.3-8.3C734.9,743.7,734.9,695.4,734.9,673.2L734.9,673.2z"/>
<path class="st18" d="M517.6,1336h85.2c142.6,0,259.3,116.7,259.3,259.3v84.5H517.6V1336L517.6,1336z"/>
<path class="st19" d="M416.6,1189.9v195.5c0,24.1-19.7,43.8-43.8,43.8h-3.7c-7.1,0-13-5.8-13-13l0,0c0-7.1,5.8-13,13-13h17.3
	c14.8,0,27-12.1,27-27v-186.3H416.6L416.6,1189.9z"/>
<path class="st20" d="M430.6,1204.7l34.1-59.1c25.5-44.3,80.8-61.3,126.4-40.6l-83.3,144.3L430.6,1204.7L430.6,1204.7z"/>
<path class="st21" d="M557.3,1123.7l-40.5,70.2c-0.8,1.5-2.7,2-4.2,1.1c-1.5-0.8-2-2.7-1.1-4.2l40.5-70.2c0.8-1.5,2.7-2,4.2-1.1
	C557.6,1120.3,558.1,1122.2,557.3,1123.7L557.3,1123.7z"/>
<path class="st18" d="M395,1242.5v-68.3c0-51.1-39.3-93.5-89.1-98.4v166.7L395,1242.5L395,1242.5z"/>
<path class="st18" d="M556.5,1241.2H431.2v96.8l8.2,8.2l10.7-10.7c0.9-0.9,2.3-0.9,3.2,0l2.9,2.9l7.8,7.8l10.7-10.7
	c0.9-0.9,2.3-0.9,3.2,0l2.9,2.9l7.8,7.8l10.7-10.7c0.9-0.9,2.3-0.9,3.2,0c0.9,0.9,0.9,2.3,0,3.2L490,1351c-0.9,0.9-2.3,0.9-3.2,0
	l-10.7-10.7l-10.7,10.7c-0.9,0.9-2.3,0.9-3.2,0l-10.7-10.7L441,1351c-0.9,0.9-2.3,0.9-3.2,0l-6.6-6.6v166.3h125.3V1241.2
	L556.5,1241.2z"/>
<path class="st18" d="M431.2,1115.9L431.2,1115.9c68.9,0,125.3,56.4,125.3,125.3v125.3H431.2v-22.1l6.6,6.6c0.9,0.9,2.3,0.9,3.2,0
	l10.7-10.7l10.7,10.7c0.9,0.9,2.3,0.9,3.2,0l10.7-10.7L487,1351c0.9,0.9,2.3,0.9,3.2,0l12.3-12.3c0.9-0.9,0.9-2.3,0-3.2
	c-0.9-0.9-2.3-0.9-3.2,0l-10.7,10.7l-7.8-7.8l-2.9-2.9c-0.9-0.9-2.3-0.9-3.2,0l-10.7,10.7l-7.8-7.8l-2.9-2.9c-0.9-0.9-2.3-0.9-3.2,0
	l-10.7,10.7l-10-10c-0.2-0.2-0.4-0.4-0.6-0.6l0,0c-0.1-0.1-0.2-0.2-0.3-0.2c-1.2-1-2.8-1.6-4.5-1.6l0,0c-4,0-7.3,3.3-7.3,7.3v24.6
	c-62.1-7.3-110.8-60.5-110.8-124.5l0,0C305.8,1172.3,362.2,1115.9,431.2,1115.9L431.2,1115.9z"/>
<path class="st20" d="M378.2,1178L378.2,1178c29.1,0,53,23.8,53,53v53h-53c-29.1,0-53-23.8-53-53l0,0
	C325.2,1201.9,349.1,1178,378.2,1178L378.2,1178z"/>
<path class="st22" d="M493,1204.4c15.1,0,27.4,12.3,27.4,27.4s-12.3,27.4-27.4,27.4s-27.4-12.3-27.4-27.4
	C465.6,1216.6,477.9,1204.4,493,1204.4L493,1204.4z"/>
<path class="st15" d="M378.2,1199.2c17.6,0,31.8,14.3,31.8,31.8c0,17.6-14.3,31.8-31.8,31.8c-17.6,0-31.8-14.3-31.8-31.8
	C346.4,1213.4,360.6,1199.2,378.2,1199.2L378.2,1199.2z"/>
<path class="st23" d="M265.4,1294.7h127c1.4,0,2.6,1.2,2.6,2.6l0,0c0,1.4-1.2,2.6-2.6,2.6h-127c-1.4,0-2.6-1.2-2.6-2.6l0,0
	C262.8,1295.8,264,1294.7,265.4,1294.7L265.4,1294.7z"/>
<path class="st23" d="M269.1,1337.4l122.7-32.9c1.4-0.4,2.8,0.4,3.1,1.8l0,0c0.4,1.4-0.5,2.8-1.8,3.1l-122.7,32.9
	c-1.4,0.4-2.8-0.4-3.1-1.8l0,0C266.9,1339.2,267.7,1337.7,269.1,1337.4L269.1,1337.4z"/>
<path class="st23" d="M281.5,1377.7l110-63.5c1.2-0.7,2.8-0.3,3.5,0.9l0,0c0.7,1.2,0.3,2.8-0.9,3.5l-110,63.5
	c-1.2,0.7-2.8,0.3-3.5-0.9l0,0C279.9,1379.9,280.3,1378.4,281.5,1377.7L281.5,1377.7z"/>
<path class="st24" d="M417.2,1265.2h27.9c10.3,0,18.8,8.5,18.8,18.8l0,0c0,10.3-8.5,18.8-18.8,18.8h-27.9
	c-10.3,0-18.8-8.5-18.8-18.8l0,0C398.4,1273.6,406.9,1265.2,417.2,1265.2L417.2,1265.2z"/>
<path class="st23" d="M366.9,1219.7L366.9,1219.7c1-1,2.5-1,3.5,0l19,19c1,1,1,2.5,0,3.5l0,0c-1,1-2.5,1-3.5,0l-19-19
	C366,1222.3,366,1220.7,366.9,1219.7L366.9,1219.7z"/>
<path class="st18" d="M463.9,1679.8h-94l70.2-270.9l23.8,88.3v63c-9.5,10.7-15.4,24.9-15.4,40.6c0,15.6,5.8,29.9,15.4,40.6
	L463.9,1679.8L463.9,1679.8z"/>
<path class="st24" d="M389.1,1679.8C366.5,1651.8,411.7,1651.8,389.1,1679.8L389.1,1679.8z"/>
<path class="st24" d="M405.7,1679.8C383.1,1651.8,428.3,1651.8,405.7,1679.8L405.7,1679.8z"/>
<path class="st24" d="M422.3,1679.8C399.7,1651.8,444.9,1651.8,422.3,1679.8L422.3,1679.8z"/>
<path class="st18" d="M545.8,1287.1h10.7v5c0,24.2,19.8,43.9,43.9,43.9h4.7v4.1h-59.3L545.8,1287.1L545.8,1287.1z"/>
<path class="st25" d="M493,1220.1c6.4,0,11.6,5.2,11.6,11.6s-5.2,11.6-11.6,11.6s-11.6-5.2-11.6-11.6
	C481.4,1225.3,486.6,1220.1,493,1220.1L493,1220.1z"/>
<path class="st21" d="M672,1679.8c35.9-26.6,59.1-69.3,59.1-117.4c0-80.7-65.4-146.2-146.2-146.2c-80.7,0-146.2,65.4-146.2,146.2
	c0,48.1,23.2,90.8,59.1,117.4H672L672,1679.8z"/>
<path class="st26" d="M573.6,1413.6c1.6-0.1,3.2-0.2,4.8-0.3v136.3h-4.8V1413.6L573.6,1413.6z"/>
<path class="st26" d="M595.2,1413.6c1.6,0.1,3.2,0.2,4.8,0.4v129.6l-4.8,1.5V1413.6L595.2,1413.6z"/>
<path class="st26" d="M616.8,1416.6c1.6,0.3,3.2,0.7,4.7,1.1v118.8l-4.7,1.5V1416.6L616.8,1416.6z"/>
<path class="st26" d="M638.4,1423.1c1.6,0.6,3.2,1.3,4.7,1.9v104.5l-4.7,1.5V1423.1L638.4,1423.1z"/>
<path class="st26" d="M662.9,1433.5c1.6,0.9,3.2,1.9,4.8,2.9v86.2l-4.8,1.5V1433.5L662.9,1433.5z"/>
<path class="st26" d="M446.1,1508.2c0.6-1.5,1.2-3,1.8-4.4l127.2,41.3l-1.5,4.5L446.1,1508.2L446.1,1508.2z"/>
<path class="st26" d="M455.4,1488.6c0.8-1.4,1.6-2.8,2.5-4.2l118.1,38.4v5L455.4,1488.6L455.4,1488.6z"/>
<path class="st26" d="M468,1469.9c1.1-1.3,2.1-2.6,3.2-3.9l104.8,34v5L468,1469.9L468,1469.9z"/>
<path class="st26" d="M484.1,1452.5c1.4-1.2,2.7-2.5,4.1-3.6l87.8,28.5v5L484.1,1452.5L484.1,1452.5z"/>
<path class="st26" d="M507.8,1436.5c1.8-1.1,3.5-2.2,5.3-3.3l65.8,21.4v5L507.8,1436.5L507.8,1436.5z"/>
<path class="st26" d="M535.3,1422.8c2.4-0.9,4.9-1.8,7.4-2.6L579,1432v5L535.3,1422.8L535.3,1422.8z"/>
<path class="st26" d="M484.7,1672.1c-1.2-1.1-2.3-2.2-3.5-3.3l88.6-121.9l3.8,2.8L484.7,1672.1L484.7,1672.1z"/>
<path class="st26" d="M469.6,1656.1c-1-1.3-2-2.6-3.1-3.9l82.2-113.2l4.7,1.5L469.6,1656.1L469.6,1656.1z"/>
<path class="st26" d="M456.5,1637.4c-0.9-1.5-1.7-3-2.6-4.5l73.2-100.8l4.7,1.5L456.5,1637.4L456.5,1637.4z"/>
<path class="st26" d="M445.9,1615.3c-0.7-1.8-1.3-3.6-2-5.4l61.7-84.9l4.8,1.6L445.9,1615.3L445.9,1615.3z"/>
<path class="st26" d="M438.5,1588.8c-0.4-2.2-0.7-4.4-1-6.6L484,1518l4.8,1.5L438.5,1588.8L438.5,1588.8z"/>
<path class="st26" d="M436.2,1555.2c0.1-3,0.4-6,0.7-9l25.6-35.2l4.8,1.5L436.2,1555.2L436.2,1555.2z"/>
<polygon class="st26" points="662.3,1679.8 569.8,1552.4 573.6,1549.6 668.2,1679.8 "/>
<polygon class="st26" points="635.7,1679.8 555.9,1570 558.8,1566 641.5,1679.8 "/>
<polygon class="st26" points="609,1679.8 542.6,1588.4 545.5,1584.3 614.9,1679.8 "/>
<polygon class="st26" points="582.3,1679.8 529.2,1606.7 532.2,1602.7 588.2,1679.8 "/>
<polygon class="st26" points="555.6,1679.8 515.9,1625.1 518.8,1621 561.5,1679.8 "/>
<polygon class="st26" points="529,1679.8 502.6,1643.4 505.5,1639.4 534.8,1679.8 "/>
<path class="st26" d="M721,1501.8c0.6,1.5,1.3,2.9,1.9,4.4l-147.8,48l-1.5-4.5L721,1501.8L721,1501.8z"/>
<path class="st26" d="M728.3,1522.1c0.4,1.5,0.8,3.1,1.2,4.6l-142,46.1l-2.9-4L728.3,1522.1L728.3,1522.1z"/>
<path class="st26" d="M732.5,1543.4c0.2,1.6,0.4,3.2,0.5,4.8l-132.2,43l-2.9-4L732.5,1543.4L732.5,1543.4z"/>
<path class="st26" d="M733.7,1565.7c0,1.7-0.1,3.4-0.2,5.1l-119.2,38.7l-2.9-4L733.7,1565.7L733.7,1565.7z"/>
<path class="st26" d="M731.2,1589.2c-0.3,1.8-0.7,3.6-1.1,5.3l-102.6,33.3l-2.9-4L731.2,1589.2L731.2,1589.2z"/>
<path class="st26" d="M724.3,1614.1c-0.7,1.9-1.5,3.8-2.3,5.7l-81.2,26.4l-2.9-4L724.3,1614.1L724.3,1614.1z"/>
<polygon class="st27" points="913.6,1435.9 948.3,1435.9 948.3,1607.2 913.6,1607.2 "/>
<path class="st27" d="M879.7,1607.2h33.9v-33.9C913.6,1592,898.3,1607.2,879.7,1607.2L879.7,1607.2z"/>
<path class="st28" d="M1071.8,1551.2h-61.7c-5.7,0-10.3-4.6-10.3-10.3l0,0c0-5.7,4.6-10.3,10.3-10.3h61.7c5.7,0,10.3,4.6,10.3,10.3
	l0,0C1082.1,1546.6,1077.4,1551.2,1071.8,1551.2z"/>
<path class="st28" d="M1170.3,1627.4l-39.9-23c-13.4-7.8-20.6-22.4-19.6-37h-13c-8.9,0-25.6,0-25.6,0V1540h-62.5v115.5v24.5h62.5
	v-36.9c0-7.2,5.9-13.2,13.2-13.2s13.2,5.9,13.2,13.2v36.9h121.7v-24.5c0-11-2.1-21.6-5.8-31.3
	C1202.1,1633.8,1184.6,1635.7,1170.3,1627.4z"/>
<path class="st29" d="M726,1623h-25.4c-27.4,0-49.8,22.4-49.8,49.8H726V1623L726,1623z"/>
<path class="st29" d="M851.7,1566.5l2.8,7c1.5,3.9-0.4,8.2-4.3,9.8l-39.1,15.4l-5.5-14L851.7,1566.5L851.7,1566.5z"/>
<path class="st30" d="M953.7,1667.4H707.9V1623l134.3-52.8c0.7,19.1,16.6,34.5,35.8,34.5h34.4c19.7,0,35.9-16.1,35.9-35.9v-0.4h5.4
	L953.7,1667.4L953.7,1667.4z"/>
<path class="st29" d="M953.7,1667.4h-58.8c0-32.5,26.4-59.1,58.8-59.6V1667.4L953.7,1667.4z"/>
<g>
	<path class="st15" d="M807.4,1325.8c-39.2,0-71.1-31.9-71.1-71.1s31.9-71.1,71.1-71.1h345.4c39.2,0,71.1,31.9,71.1,71.1
		s-31.9,71.1-71.1,71.1H807.4z"/>
	<path class="st16" d="M1152.8,1204.6c13.3,0,25.8,5.2,35.4,14.8c9.5,9.5,14.8,22.1,14.8,35.4s-5.2,25.8-14.8,35.4
		c-9.5,9.5-22.1,14.8-35.4,14.8H807.4c-13.3,0-25.8-5.2-35.4-14.8s-14.8-22.1-14.8-35.4s5.2-25.8,14.8-35.4
		c9.5-9.5,22.1-14.8,35.4-14.8H1152.8 M1152.8,1162.6H807.4c-50.7,0-92.1,41.4-92.1,92.1l0,0c0,50.7,41.4,92.1,92.1,92.1h345.4
		c50.7,0,92.1-41.4,92.1-92.1l0,0C1244.9,1204.1,1203.4,1162.6,1152.8,1162.6L1152.8,1162.6z"/>
</g>
<path class="st31" d="M854.7,1204.4h113.1v237.8h-77.4v-174.8C890.4,1242,876.4,1219.2,854.7,1204.4L854.7,1204.4L854.7,1204.4z"/>
<path class="st31" d="M1115.8,1204.4h-113.1v237.8h77.4v-174.8C1080.1,1242,1094.1,1219.2,1115.8,1204.4L1115.8,1204.4
	L1115.8,1204.4z"/>
<path class="st32" d="M1074.7,1680h-69.1c-4.5,0-8.2-3.7-8.2-8.2l0,0c0-4.5,3.7-8.2,8.2-8.2h69.1c4.5,0,8.2,3.7,8.2,8.2l0,0
	C1082.9,1676.3,1079.2,1680,1074.7,1680z"/>
<path class="st32" d="M1223.8,1680h-128.3c-4.5,0-8.2-3.7-8.2-8.2l0,0c0-4.5,3.7-8.2,8.2-8.2h128.3c4.5,0,8.2,3.7,8.2,8.2l0,0
	C1232,1676.3,1228.3,1680,1223.8,1680z"/>
<g>
	<path class="st33" d="M1180.1,1615.8c-1.3-1.3-1.3-3.4,0-4.7l15.9-15.9c-2.3-2.4-4.6-4.7-7.2-6.8l-15.8,15.8
		c-1.3,1.3-3.4,1.3-4.7,0l0,0c-1.3-1.3-1.3-3.4,0-4.7l15.2-15.2c-2.7-2-5.6-3.8-8.5-5.5l-13.7,13.7c-1.3,1.3-3.4,1.3-4.7,0
		c-1.3-1.3-1.3-3.4,0-4.7l12.2-12.2c-11.3-5.3-23.8-8.2-36.9-8.2h-21.3c-1,14.6,6.1,29.2,19.6,37l39.9,23
		c14.3,8.3,31.8,6.4,44.1-3.2c-3.4-8.8-8.1-16.9-14-24l-15.6,15.6C1183.5,1617.1,1181.4,1617.1,1180.1,1615.8z"/>
	<path class="st34" d="M1156.9,1592.5c1.3,1.3,3.4,1.3,4.7,0l13.7-13.7c-2-1.1-4.1-2.2-6.1-3.2l-12.2,12.2
		C1155.6,1589.1,1155.6,1591.2,1156.9,1592.5z"/>
	<path class="st34" d="M1168.5,1604.1L1168.5,1604.1c1.3,1.3,3.4,1.3,4.7,0l15.8-15.8c-1.7-1.4-3.4-2.8-5.2-4.1l-15.2,15.2
		C1167.2,1600.8,1167.2,1602.9,1168.5,1604.1z"/>
	<path class="st34" d="M1180.1,1611.1c-1.3,1.3-1.3,3.4,0,4.7c1.3,1.3,3.4,1.3,4.7,0l15.6-15.6c-1.4-1.7-2.8-3.4-4.3-5
		L1180.1,1611.1z"/>
</g>
<path class="st13" d="M955.4,1680H649.5c-4.5,0-8.2-3.7-8.2-8.2l0,0c0-4.5,3.7-8.2,8.2-8.2h305.9c4.5,0,8.2,3.7,8.2,8.2l0,0
	C963.6,1676.3,959.9,1680,955.4,1680z"/>
<circle class="st35" cx="771.2" cy="1618.2" r="8.2"/>
<circle class="st35" cx="797.5" cy="1608.4" r="8.2"/>
<circle class="st35" cx="744.9" cy="1628.1" r="8.2"/>
<rect x="1019.6" y="1456.4" class="st36" width="39.5" height="13"/>
<rect x="1019.6" y="1479.4" class="st36" width="39.5" height="13"/>
<rect x="1019.6" y="1502.5" class="st36" width="39.5" height="13"/>
</svg>
