<?xml version="1.0" encoding="utf-8"?>
<!-- Generator: Adobe Illustrator 16.0.0, SVG Export Plug-In . SVG Version: 6.00 Build 0)  -->
<!DOCTYPE svg PUBLIC "-//W3C//DTD SVG 1.1//EN" "http://www.w3.org/Graphics/SVG/1.1/DTD/svg11.dtd">
<svg version="1.1" id="Layer_1" xmlns="http://www.w3.org/2000/svg" xmlns:xlink="http://www.w3.org/1999/xlink" x="0px" y="0px"
	 width="542.8px" height="737px" viewBox="0 0 542.8 737" style="enable-background:new 0 0 542.8 737;" xml:space="preserve">
<style type="text/css">
<![CDATA[
	.st0{clip-path:url(#SVGID_11_);fill-rule:evenodd;clip-rule:evenodd;fill:#8C6239;}
	.st1{clip-path:url(#SVGID_24_);fill-rule:evenodd;clip-rule:evenodd;fill:#8C6239;}
	.st2{clip-path:url(#SVGID_24_);fill:none;stroke:#FF7BAC;stroke-width:12;stroke-linecap:round;stroke-miterlimit:10;}
	.st3{clip-path:url(#SVGID_24_);fill-rule:evenodd;clip-rule:evenodd;fill:#F04C33;}
	.st4{display:none;fill:#FFCC00;}
	.st5{clip-path:url(#SVGID_24_);fill-rule:evenodd;clip-rule:evenodd;fill:#F15A24;}
	.st6{clip-path:url(#SVGID_42_);fill-rule:evenodd;clip-rule:evenodd;}
	.st7{clip-path:url(#SVGID_11_);fill-rule:evenodd;clip-rule:evenodd;fill:#F2F2F2;}
	.st8{clip-path:url(#SVGID_44_);fill-rule:evenodd;clip-rule:evenodd;}
	.st9{clip-path:url(#SVGID_46_);fill-rule:evenodd;clip-rule:evenodd;}
	.st10{clip-path:url(#SVGID_19_);fill:none;stroke:#FF7BAC;stroke-width:12;stroke-linecap:round;stroke-miterlimit:10;}
	.st11{clip-path:url(#SVGID_44_);fill-rule:evenodd;clip-rule:evenodd;fill:#EB707D;}
	.st12{clip-path:url(#SVGID_48_);fill-rule:evenodd;clip-rule:evenodd;}
	.st13{display:none;fill:#660099;}
	.st14{clip-path:url(#SVGID_24_);fill-rule:evenodd;clip-rule:evenodd;fill:#F6E6DB;}
	.st15{clip-path:url(#SVGID_6_);fill-rule:evenodd;clip-rule:evenodd;fill:#9900CC;}
	.st16{clip-path:url(#SVGID_11_);fill-rule:evenodd;clip-rule:evenodd;fill:#F7931E;}
	.st17{clip-path:url(#SVGID_24_);fill-rule:evenodd;clip-rule:evenodd;fill:#F7931E;}
	.st18{clip-path:url(#SVGID_29_);fill-rule:evenodd;clip-rule:evenodd;fill:#ED1C24;}
	.st19{clip-path:url(#SVGID_42_);fill-rule:evenodd;clip-rule:evenodd;fill:#FFFFFF;}
	.st20{clip-path:url(#SVGID_24_);fill-rule:evenodd;clip-rule:evenodd;fill:#93278F;}
	.st21{clip-path:url(#SVGID_6_);fill-rule:evenodd;clip-rule:evenodd;fill:#CC3366;}
	.st22{clip-path:url(#SVGID_11_);fill-rule:evenodd;clip-rule:evenodd;fill:#FBB03B;}
	.st23{clip-path:url(#SVGID_11_);fill-rule:evenodd;clip-rule:evenodd;fill:#FF3399;}
	.st24{clip-path:url(#SVGID_11_);fill-rule:evenodd;clip-rule:evenodd;fill:#FF3700;}
	.st25{clip-path:url(#SVGID_11_);fill-rule:evenodd;clip-rule:evenodd;fill:#FF66AD;}
	.st26{clip-path:url(#SVGID_24_);fill-rule:evenodd;clip-rule:evenodd;fill:#FF6600;}
	.st27{clip-path:url(#SVGID_24_);fill-rule:evenodd;clip-rule:evenodd;fill:#FF7BAC;}
	.st28{clip-path:url(#SVGID_11_);fill-rule:evenodd;clip-rule:evenodd;fill:#FF9470;}
	.st29{clip-path:url(#SVGID_11_);fill-rule:evenodd;clip-rule:evenodd;fill:#FFAE00;}
	.st30{clip-path:url(#SVGID_11_);fill-rule:evenodd;clip-rule:evenodd;fill:#FFC7FF;}
	.st31{clip-path:url(#SVGID_11_);fill-rule:evenodd;clip-rule:evenodd;fill:#FFCC00;}
	.st32{clip-path:url(#SVGID_11_);fill-rule:evenodd;clip-rule:evenodd;fill:#FFCC33;}
	.st33{clip-path:url(#SVGID_11_);fill-rule:evenodd;clip-rule:evenodd;fill:#FFCC99;}
	.st34{clip-path:url(#SVGID_11_);fill-rule:evenodd;clip-rule:evenodd;fill:#FFD9D9;}
	.st35{clip-path:url(#SVGID_24_);fill-rule:evenodd;clip-rule:evenodd;fill:#FFCC00;}
	.st36{clip-path:url(#SVGID_11_);fill-rule:evenodd;clip-rule:evenodd;fill:#FFFFFF;}
	.st37{clip-path:url(#SVGID_24_);fill-rule:evenodd;clip-rule:evenodd;fill:#FFFFFF;}
	.st38{display:none;fill:#D3135A;}
	.st39{clip-path:url(#SVGID_19_);fill-rule:evenodd;clip-rule:evenodd;fill:#93278F;}
	.st40{clip-path:url(#SVGID_11_);fill:#D31900;}
	.st41{clip-path:url(#SVGID_34_);fill-rule:evenodd;clip-rule:evenodd;fill:#996633;}
	.st42{clip-path:url(#SVGID_29_);fill-rule:evenodd;clip-rule:evenodd;fill:#F7931E;}
	.st43{clip-path:url(#SVGID_34_);fill-rule:evenodd;clip-rule:evenodd;fill:#99CC66;}
	.st44{clip-path:url(#SVGID_11_);fill-rule:evenodd;clip-rule:evenodd;fill:#CC3300;}
	.st45{clip-path:url(#SVGID_11_);fill-rule:evenodd;clip-rule:evenodd;fill:#CC66FF;}
	.st46{clip-path:url(#SVGID_24_);fill-rule:evenodd;clip-rule:evenodd;fill:#CC9933;}
	.st47{clip-path:url(#SVGID_11_);fill-rule:evenodd;clip-rule:evenodd;fill:#CCCCCC;}
	.st48{clip-path:url(#SVGID_19_);fill-rule:evenodd;clip-rule:evenodd;fill:#FBB03B;}
	.st49{clip-path:url(#SVGID_34_);fill-rule:evenodd;clip-rule:evenodd;fill:#FF0066;}
	.st50{clip-path:url(#SVGID_34_);fill-rule:evenodd;clip-rule:evenodd;fill:#FF9966;}
	.st51{clip-path:url(#SVGID_34_);fill-rule:evenodd;clip-rule:evenodd;fill:#FFCC00;}
	.st52{clip-path:url(#SVGID_15_);fill:#FF8133;}
	.st53{clip-path:url(#SVGID_19_);fill-rule:evenodd;clip-rule:evenodd;fill:#FF6600;}
	.st54{clip-path:url(#SVGID_19_);fill-rule:evenodd;clip-rule:evenodd;fill:#FF6633;}
	.st55{clip-path:url(#SVGID_19_);fill-rule:evenodd;clip-rule:evenodd;fill:#FF7BAC;}
	.st56{clip-path:url(#SVGID_19_);fill-rule:evenodd;clip-rule:evenodd;fill:#FF9900;}
	.st57{clip-path:url(#SVGID_11_);fill-rule:evenodd;clip-rule:evenodd;fill:#336699;}
	.st58{clip-path:url(#SVGID_19_);fill-rule:evenodd;clip-rule:evenodd;fill:#FFCC00;}
	.st59{clip-path:url(#SVGID_19_);fill-rule:evenodd;clip-rule:evenodd;fill:#FFCC66;}
	.st60{clip-path:url(#SVGID_19_);fill-rule:evenodd;clip-rule:evenodd;fill:#FFDB00;}
	.st61{clip-path:url(#SVGID_11_);fill-rule:evenodd;clip-rule:evenodd;fill:#33CCFF;}
	.st62{clip-path:url(#SVGID_44_);fill-rule:evenodd;clip-rule:evenodd;fill:#999999;}
	.st63{clip-path:url(#SVGID_34_);fill-rule:evenodd;clip-rule:evenodd;fill:#CC6633;}
	.st64{clip-path:url(#SVGID_29_);fill-rule:evenodd;clip-rule:evenodd;fill:#FBB03B;}
	.st65{clip-path:url(#SVGID_15_);fill-rule:evenodd;clip-rule:evenodd;fill:#820082;}
	.st66{clip-path:url(#SVGID_44_);fill-rule:evenodd;clip-rule:evenodd;fill:#FFCC00;}
	.st67{clip-path:url(#SVGID_24_);fill-rule:evenodd;clip-rule:evenodd;fill:#00ABFF;}
	.st68{clip-path:url(#SVGID_29_);fill-rule:evenodd;clip-rule:evenodd;fill:#FF0066;}
	.st69{clip-path:url(#SVGID_29_);fill-rule:evenodd;clip-rule:evenodd;fill:#FF7BAC;}
	.st70{clip-path:url(#SVGID_29_);fill-rule:evenodd;clip-rule:evenodd;fill:#FFFFFF;}
	.st71{clip-path:url(#SVGID_2_);}
	.st72{clip-path:url(#SVGID_4_);}
	.st73{clip-path:url(#SVGID_44_);fill-rule:evenodd;clip-rule:evenodd;fill:#666666;}
	.st74{clip-path:url(#SVGID_44_);fill-rule:evenodd;clip-rule:evenodd;fill:#333333;}
	.st75{clip-path:url(#SVGID_34_);fill:none;stroke:#FF0033;stroke-width:8;stroke-linecap:round;stroke-miterlimit:10;}
	.st76{display:none;clip-path:url(#SVGID_15_);fill-rule:evenodd;clip-rule:evenodd;fill:#D4145A;}
	.st77{fill:#FFCC00;}
	.st78{fill:#FFFFFF;}
	.st79{fill:none;}
	.st80{clip-path:url(#SVGID_11_);fill-rule:evenodd;clip-rule:evenodd;fill:#A60008;}
	.st81{clip-path:url(#SVGID_24_);fill-rule:evenodd;clip-rule:evenodd;fill:#A67C52;}
	.st82{clip-path:url(#SVGID_11_);fill:#E6E6E6;}
	.st83{clip-path:url(#SVGID_29_);fill-rule:evenodd;clip-rule:evenodd;fill:#00ABFF;}
	.st84{clip-path:url(#SVGID_21_);fill:url(#SVGID_22_);}
	.st85{clip-path:url(#SVGID_6_);fill-rule:evenodd;clip-rule:evenodd;fill:#E06C00;}
	.st86{clip-path:url(#SVGID_48_);fill-rule:evenodd;clip-rule:evenodd;fill:#EC1E24;}
	.st87{clip-path:url(#SVGID_19_);fill:#FF7BAC;}
	.st88{clip-path:url(#SVGID_11_);fill:#B3B3B3;}
	.st89{clip-path:url(#SVGID_15_);fill-rule:evenodd;clip-rule:evenodd;fill:#F9AA8F;}
	.st90{clip-path:url(#SVGID_46_);fill-rule:evenodd;clip-rule:evenodd;fill:#FFFFFF;}
	.st91{clip-path:url(#SVGID_29_);fill-rule:evenodd;clip-rule:evenodd;fill:#D76367;}
	.st92{clip-path:url(#SVGID_19_);fill-rule:evenodd;clip-rule:evenodd;fill:#A67C52;}
	.st93{clip-path:url(#SVGID_11_);fill-rule:evenodd;clip-rule:evenodd;fill:#E06C00;}
	.st94{clip-path:url(#SVGID_15_);fill-rule:evenodd;clip-rule:evenodd;fill:#C90007;}
	.st95{clip-path:url(#SVGID_15_);fill-rule:evenodd;clip-rule:evenodd;fill:#FF0009;}
	.st96{clip-path:url(#SVGID_15_);fill-rule:evenodd;clip-rule:evenodd;fill:#FF5900;}
	.st97{clip-path:url(#SVGID_15_);fill-rule:evenodd;clip-rule:evenodd;fill:#FF99FF;}
	.st98{clip-path:url(#SVGID_11_);fill-rule:evenodd;clip-rule:evenodd;fill:#E6E6E6;}
	.st99{clip-path:url(#SVGID_15_);fill-rule:evenodd;clip-rule:evenodd;fill:#FFCB05;}
	.st100{clip-path:url(#SVGID_46_);fill-rule:evenodd;clip-rule:evenodd;fill:#3399FF;}
	.st101{clip-path:url(#SVGID_15_);fill-rule:evenodd;clip-rule:evenodd;fill:#FFFFFF;}
	.st102{clip-path:url(#SVGID_31_);fill:url(#SVGID_32_);}
	.st103{clip-path:url(#SVGID_6_);fill-rule:evenodd;clip-rule:evenodd;fill:#ED1C24;}
	.st104{clip-path:url(#SVGID_29_);fill-rule:evenodd;clip-rule:evenodd;fill:#404041;}
	.st105{clip-path:url(#SVGID_11_);fill-rule:evenodd;clip-rule:evenodd;}
	.st106{clip-path:url(#SVGID_15_);fill-rule:evenodd;clip-rule:evenodd;}
	.st107{clip-path:url(#SVGID_11_);fill-rule:evenodd;clip-rule:evenodd;fill:#81AFDE;}
	.st108{clip-path:url(#SVGID_11_);fill:#F15A24;}
	.st109{clip-path:url(#SVGID_15_);fill-rule:evenodd;clip-rule:evenodd;fill:#CC0066;}
	.st110{clip-path:url(#SVGID_11_);}
	.st111{clip-path:url(#SVGID_13_);}
	.st112{clip-path:url(#SVGID_17_);}
	.st113{clip-path:url(#SVGID_36_);}
	.st114{clip-path:url(#SVGID_38_);}
	.st115{clip-path:url(#SVGID_40_);}
	.st116{clip-path:url(#SVGID_42_);}
	.st117{clip-path:url(#SVGID_8_);fill:url(#SVGID_9_);}
	.st118{clip-path:url(#SVGID_24_);fill:none;stroke:#000000;stroke-width:12;stroke-linecap:round;stroke-miterlimit:10;}
	.st119{clip-path:url(#SVGID_11_);fill:#F7931E;}
	.st120{clip-path:url(#SVGID_24_);fill-rule:evenodd;clip-rule:evenodd;}
	.st121{clip-path:url(#SVGID_44_);fill-rule:evenodd;clip-rule:evenodd;fill:#E13E4F;}
	.st122{clip-path:url(#SVGID_11_);fill-rule:evenodd;clip-rule:evenodd;fill:#ED1C24;}
	.st123{clip-path:url(#SVGID_24_);fill-rule:evenodd;clip-rule:evenodd;fill:#ED1C24;}
	.st124{clip-path:url(#SVGID_29_);fill-rule:evenodd;clip-rule:evenodd;}
	.st125{clip-path:url(#SVGID_19_);fill:none;stroke:#000000;stroke-width:10;stroke-linecap:round;stroke-miterlimit:10;}
	.st126{clip-path:url(#SVGID_44_);fill-rule:evenodd;clip-rule:evenodd;fill:#E6E6E6;}
	.st127{clip-path:url(#SVGID_44_);fill-rule:evenodd;clip-rule:evenodd;fill:#E6E7E8;}
	.st128{clip-path:url(#SVGID_15_);fill-rule:evenodd;clip-rule:evenodd;fill:#6D6E70;}
	.st129{clip-path:url(#SVGID_48_);fill-rule:evenodd;clip-rule:evenodd;fill:#FFFFFF;}
	.st130{clip-path:url(#SVGID_15_);fill-rule:evenodd;clip-rule:evenodd;fill:#0099FF;}
	.st131{clip-path:url(#SVGID_26_);fill:url(#SVGID_27_);}
	.st132{clip-path:url(#SVGID_34_);fill-rule:evenodd;clip-rule:evenodd;}
]]>
</style>
<g>
	<defs>
		<rect id="SVGID_12_" x="592" width="1440" height="840"/>
	</defs>
	<clipPath id="SVGID_2_">
		<use xlink:href="#SVGID_12_"  style="overflow:visible;"/>
	</clipPath>
	<g class="st71">
		<defs>
			<rect id="SVGID_14_" x="308.6" y="-532.1" width="1917.2" height="1917.2"/>
		</defs>
		<clipPath id="SVGID_4_">
			<use xlink:href="#SVGID_14_"  style="overflow:visible;"/>
		</clipPath>
		<path style="display:none;clip-path:url(#SVGID_4_);fill-rule:evenodd;clip-rule:evenodd;fill:#D4145A;" d="M2225.8,426.5
			c0,529.4-429.2,958.6-958.6,958.6S308.6,955.9,308.6,426.5s429.2-958.6,958.6-958.6S2225.8-102.9,2225.8,426.5"/>
		<polygon style="clip-path:url(#SVGID_4_);fill:#FF8133;" points="400.6,42.3 400.6,725.6 1502.1,392 1502.1,334.7 		"/>
	</g>
</g>
<rect x="10" class="st79" width="543" height="737"/>
<g>
	<defs>
		<rect id="SVGID_43_" width="542.8" height="737"/>
	</defs>
	<clipPath id="SVGID_6_">
		<use xlink:href="#SVGID_43_"  style="overflow:visible;"/>
	</clipPath>
	<path style="clip-path:url(#SVGID_6_);fill-rule:evenodd;clip-rule:evenodd;fill:#E6E6E6;" d="M56.7,671.5
		c-1.1-8.7-9.1-15.1-17.9-13.9c-9,1.2-17.1,5.7-22.9,12.6c-6.4,7.7-9.3,17.7-8,27.7c1.3,9.9,6.6,18.9,14.7,24.7
		c7.4,5.3,16.4,7.6,25.4,6.4c8.1-1,15.7-3.9,22.5-8.3c20.3-13.2,47.8-68.2,61.3-90.9c1.1-1.8,8.6,0.7,10.1,2.3
		c2.8,3.2,12.2,2.6,5.8,10.4c-15.6,19-54.7,72.7-73.1,84.6c-7.8,5-16.5,8.3-25.7,9.5c-10.9,1.4-21.9-1.4-30.8-7.8
		c-9.8-7.1-16.3-18-17.8-30c-1.5-12.1,1.9-24.1,9.7-33.5c7-8.5,16.9-14,27.8-15.4c12.9-1.7,24.8,7.6,26.4,20.5
		c0.3,2.1-1.2,4-3.3,4.3C58.9,675.1,57,673.6,56.7,671.5"/>
	<path style="clip-path:url(#SVGID_6_);fill-rule:evenodd;clip-rule:evenodd;fill:#999999;" d="M41.1,671.6
		c0-6.4,5.2-11.7,11.7-11.7c6.4,0,11.7,5.2,11.7,11.7c0,6.5-5.2,11.7-11.7,11.7C46.3,683.3,41.1,678.1,41.1,671.6"/>
	
		<rect x="398.6" y="468" style="clip-path:url(#SVGID_6_);fill-rule:evenodd;clip-rule:evenodd;fill:#E6E7E8;" width="144.2" height="29"/>
	<path style="clip-path:url(#SVGID_6_);fill-rule:evenodd;clip-rule:evenodd;fill:#666666;" d="M542.8,496.2c-0.2,0-0.4,0-0.7,0
		c-13.5,0-24.5-11-24.5-24.5c0-13.5,11-24.5,24.5-24.5c0.2,0,0.4,0,0.7,0V496.2z"/>
	
		<rect x="398.6" y="238.2" style="clip-path:url(#SVGID_6_);fill-rule:evenodd;clip-rule:evenodd;fill:#E6E7E8;" width="144.2" height="29"/>
	<path style="clip-path:url(#SVGID_6_);fill-rule:evenodd;clip-rule:evenodd;fill:#666666;" d="M542.8,266.4c-0.2,0-0.4,0-0.7,0
		c-13.5,0-24.5-11-24.5-24.5s11-24.5,24.5-24.5c0.2,0,0.4,0,0.7,0V266.4z"/>
	
		<rect x="398.6" y="542.2" style="clip-path:url(#SVGID_6_);fill-rule:evenodd;clip-rule:evenodd;fill:#E6E7E8;" width="144.2" height="29"/>
	<path style="clip-path:url(#SVGID_6_);fill-rule:evenodd;clip-rule:evenodd;fill:#666666;" d="M542.8,543c-0.2,0-0.4,0-0.7,0
		c-13.5,0-24.5,11-24.5,24.5c0,13.5,11,24.5,24.5,24.5c0.2,0,0.4,0,0.7,0V543z"/>
	
		<rect x="398.6" y="303.6" style="clip-path:url(#SVGID_6_);fill-rule:evenodd;clip-rule:evenodd;fill:#E6E7E8;" width="144.2" height="29"/>
	<path style="clip-path:url(#SVGID_6_);fill-rule:evenodd;clip-rule:evenodd;fill:#666666;" d="M542.8,304.4c-0.2,0-0.4,0-0.7,0
		c-13.5,0-24.5,11-24.5,24.5c0,13.5,11,24.5,24.5,24.5c0.2,0,0.4,0,0.7,0V304.4z"/>
	<path style="clip-path:url(#SVGID_6_);fill-rule:evenodd;clip-rule:evenodd;fill:#E13E4F;" d="M301.1,127.1V69h130.1
		c16,0,29.1,13.1,29.1,29.1v0c0,16-13.1,29.1-29.1,29.1H301.1z"/>
	<path style="clip-path:url(#SVGID_6_);fill-rule:evenodd;clip-rule:evenodd;fill:#EB707D;" d="M301.1,100.2v-4.4h127.1
		c1.2,0,2.2,1,2.2,2.2c0,1.2-1,2.2-2.2,2.2H301.1z"/>
	<path style="clip-path:url(#SVGID_6_);fill-rule:evenodd;clip-rule:evenodd;fill:#999999;" d="M207.6,145.1
		c-12.3-6.3-26.3-9.9-41-9.9c-49.8,0-90.1,40.3-90.1,90.1c0,22.6,8.3,43.2,22,59c-13.7,15.8-22,36.4-22,59c0,22.6,8.3,43.2,22,59
		c-13.7,15.8-22,36.4-22,59c0,23,8.6,43.9,22.8,59.9c-14.2,15.9-22.8,36.9-22.8,59.9c0,49.8,40.3,90.1,90.1,90.1
		c36.5,0,67.9-21.7,82.1-52.9c14.9,29.4,45.3,49.5,80.4,49.5c49.8,0,90.1-40.3,90.1-90.1c0-22.3-8.1-42.7-21.5-58.4
		c13.4-15.7,21.5-36.1,21.5-58.4c0-22.3-8.1-42.7-21.5-58.4c13.4-15.7,21.5-36.1,21.5-58.4s-8.1-42.7-21.5-58.4
		c13.4-15.7,21.5-36.1,21.5-58.4c0-49.8-40.3-90.1-90.1-90.1c-13.8,0-26.8,3.1-38.5,8.6c-12.5-6.6-26.8-10.3-41.9-10.3
		C233.8,135.2,219.9,138.8,207.6,145.1"/>
	<path style="clip-path:url(#SVGID_6_);fill-rule:evenodd;clip-rule:evenodd;fill:#333333;" d="M382,134.3L290,226.2
		c-28.6,28.6-75.4,28.6-104,0c-28.6-28.6-28.6-75.4,0-104l91.9-91.9c28.6-28.6,75.4-28.6,104,0C410.6,58.9,410.6,105.7,382,134.3"/>
	<path style="clip-path:url(#SVGID_6_);fill-rule:evenodd;clip-rule:evenodd;fill:#666666;" d="M219.3,238.5l-38.8-42.2l-54,49.6
		c-11.6,10.7-12.4,28.9-1.7,40.5c10.7,11.6,28.9,12.4,40.5,1.7L219.3,238.5z"/>
	<path style="clip-path:url(#SVGID_6_);fill-rule:evenodd;clip-rule:evenodd;fill:#666666;" d="M172.1,192.8l20.4-53.5L124,113.1
		c-14.7-5.6-31.4,1.9-37,16.6h0c-5.6,14.7,1.9,31.4,16.6,37L172.1,192.8z"/>
	<path style="clip-path:url(#SVGID_6_);fill-rule:evenodd;clip-rule:evenodd;fill:#999999;" d="M173.3,175.8l11.3-29.7L128,124.5
		c-8.1-3.1-17.4,1.1-20.5,9.2c-3.1,8.1,1.1,17.4,9.2,20.5L173.3,175.8z"/>
	<polygon style="clip-path:url(#SVGID_6_);fill-rule:evenodd;clip-rule:evenodd;fill:#FFCC00;" points="160.6,83.8 234,83.8 
		237.1,252.5 168.9,252.5 	"/>
	<rect x="178.4" y="99.9" style="clip-path:url(#SVGID_6_);fill-rule:evenodd;clip-rule:evenodd;" width="38.6" height="60.1"/>
	<rect x="182.6" y="189.5" style="clip-path:url(#SVGID_6_);fill-rule:evenodd;clip-rule:evenodd;" width="41.5" height="49.3"/>
	<path style="clip-path:url(#SVGID_6_);fill-rule:evenodd;clip-rule:evenodd;fill:#666666;" d="M302,0c15.1,0,27.4,12.3,27.4,27.4
		S317.1,54.7,302,54.7c-15.1,0-27.4-12.2-27.4-27.4S286.8,0,302,0"/>
</g>
</svg>
